<svg width="130" height="120" viewBox="0 0 130 120" fill="none" xmlns="http://www.w3.org/2000/svg">
<g clip-path="url(#clip0_173_2727)">
<path fill-rule="evenodd" clip-rule="evenodd" d="M54.4868 -0.271729C57.9901 -0.271729 61.4941 -0.271729 64.9974 -0.271729C64.5532 0.225047 64.4608 0.763161 64.7208 1.34262C67.5377 -0.030048 70.3036 -0.030048 73.0187 1.34262C73.4198 1.04208 73.8806 0.862707 74.4017 0.804505C77.1931 1.52818 79.959 2.33535 82.6995 3.22603C81.3448 4.52006 80.0536 5.86533 78.8272 7.2619C76.9934 8.18563 76.4402 7.82687 77.1676 6.18567C78.1247 5.90284 78.8626 5.36471 79.3804 4.57132C78.7155 4.08413 77.9775 4.08413 77.1676 4.57132C77.6721 3.90502 77.7645 3.18754 77.4442 2.41885C76.2388 3.41339 75.2243 4.57931 74.4017 5.91661C73.6643 6.27537 72.9263 6.27537 72.1889 5.91661C72.9562 4.68248 73.6018 3.51657 74.1251 2.41885C72.6497 3.85383 71.1749 5.28881 69.6995 6.72379C69.3306 6.18567 69.3306 5.64755 69.6995 5.10944C70.6582 4.22318 71.6722 3.41601 72.7421 2.68791C72.4655 2.41885 72.1889 2.1498 71.9123 1.88074C70.437 2.95697 69.1464 4.21257 68.04 5.64755C67.806 4.86401 67.3452 4.59495 66.657 4.84038C66.1298 5.8925 65.3918 6.78933 64.4442 7.53096C64.6284 7.71032 64.8132 7.88972 64.9974 8.06908C59.1076 8.03986 53.299 8.66763 47.5719 9.95249C46.6256 9.98515 45.888 9.62644 45.3591 8.87625C43.8185 10.4791 42.0667 11.7347 40.1038 12.6431C39.9194 12.5534 39.735 12.4637 39.5506 12.374C40.2074 11.8254 40.7606 11.1976 41.2102 10.4906C40.9327 9.94119 40.5639 9.85148 40.1038 10.2215C38.813 11.5668 37.5222 12.9121 36.2315 14.2574C36.0471 14.0781 35.8627 13.8987 35.6783 13.7193C36.7597 12.3968 37.9583 11.1412 39.274 9.95249C39.6544 9.50494 39.5622 9.14617 38.9974 8.87625C36.5023 11.2375 34.0129 13.5694 31.5293 15.8718C31.6114 15.1588 31.5192 14.531 31.2527 13.9884C32.0722 13.4608 32.8098 12.833 33.4655 12.105C33.7897 12.2176 34.0663 12.3969 34.2953 12.6431C34.5914 9.39478 33.8538 9.39478 32.0825 12.6431C31.9903 12.2843 31.8982 11.9256 31.8059 11.5668C32.9437 10.4119 33.7735 9.15624 34.2953 7.80002C30.8205 10.1211 27.6858 12.8117 24.891 15.8718C24.7067 16.4099 24.5222 16.948 24.3378 17.4861C23.844 16.8344 23.383 16.8344 22.9549 17.4861C23.6314 18.0855 24.369 18.1752 25.1676 17.7552C25.7922 16.1608 26.8986 14.995 28.4868 14.2574C28.8905 15.0289 29.4437 15.6567 30.1464 16.1408C29.962 16.3202 29.7775 16.4996 29.5932 16.6789C30.9328 16.7517 32.2235 16.4826 33.4655 15.8718C23.9086 22.037 16.8093 30.2881 12.1676 40.6251C10.7536 41.0121 10.1082 41.909 10.2315 43.3157C9.64951 43.2353 9.09632 43.325 8.57189 43.5848C7.67921 44.7292 6.57282 45.5364 5.25274 46.0063C5.95214 44.1797 6.87409 42.8344 8.0187 41.9704C7.92648 41.7014 7.83432 41.4323 7.7421 41.1632C6.85755 42.0006 6.02776 42.8974 5.25274 43.8538C5.06835 43.5848 4.88395 43.3157 4.69955 43.0467C5.6855 41.8386 6.79189 40.7624 8.0187 39.818C7.46551 39.4592 6.91232 39.4592 6.35913 39.818C5.1272 41.3973 3.65202 42.4735 1.93359 43.0467C3.45168 38.9259 5.20345 34.89 7.18891 30.939C17.1399 14.3009 31.6151 4.25608 50.6144 0.804505C51.0232 0.734006 51.392 0.823694 51.7208 1.07356C51.3046 1.43451 51.1202 1.88294 51.1676 2.41885C51.9052 1.70137 52.6428 0.983875 53.3804 0.266388C53.9289 0.358718 54.2978 0.179346 54.4868 -0.271729Z" fill="#F1EFDD"/>
<path fill-rule="evenodd" clip-rule="evenodd" d="M50.6143 0.804606C51.3991 0.292779 52.321 0.113407 53.3802 0.26649C52.6426 0.983977 51.905 1.70147 51.1674 2.41896C51.12 1.88305 51.3044 1.43461 51.7206 1.07366C51.3918 0.823795 51.023 0.734108 50.6143 0.804606Z" fill="#F7F6EC"/>
<path fill-rule="evenodd" clip-rule="evenodd" d="M66.1036 2.41895C67.4501 2.87852 67.3577 3.41663 65.827 4.0333C65.567 3.45383 65.6594 2.91572 66.1036 2.41895Z" fill="#F8F7EF"/>
<path fill-rule="evenodd" clip-rule="evenodd" d="M84.912 4.57129C86.394 4.66416 87.6852 5.20227 88.7844 6.18564C87.4871 7.26919 86.3807 8.52483 85.4652 9.95246C84.7815 10.3538 84.0435 10.5332 83.2524 10.4906C83.721 9.70153 84.4584 9.25312 85.4652 9.14528C85.1189 8.74148 84.8423 8.29301 84.6354 7.79999C84.2642 8.20487 83.8034 8.38428 83.2524 8.33811C83.5528 6.97215 84.106 5.71651 84.912 4.57129Z" fill="#F2EFDE"/>
<path fill-rule="evenodd" clip-rule="evenodd" d="M77.1675 4.57129C77.1675 5.10941 77.1675 5.64752 77.1675 6.18564C75.1981 6.0686 75.1981 5.53048 77.1675 4.57129Z" fill="#F1EEDC"/>
<path fill-rule="evenodd" clip-rule="evenodd" d="M71.0824 6.18579C71.6206 6.44769 72.1738 6.71675 72.7419 6.99297C71.8624 7.55573 71.0326 8.18355 70.2526 8.87637C70.1519 7.89151 70.4285 6.99463 71.0824 6.18579Z" fill="#F2EFDE"/>
<path fill-rule="evenodd" clip-rule="evenodd" d="M67.7631 6.18579C69.0393 6.67279 69.0393 7.39026 67.7631 8.33826C67.1402 7.63419 67.1402 6.91671 67.7631 6.18579Z" fill="#F2EFDE"/>
<path fill-rule="evenodd" clip-rule="evenodd" d="M73.8485 6.72388C74.8028 6.90818 75.0794 7.4463 74.6783 8.33823C73.8823 9.15288 73.0525 9.33229 72.189 8.87634C72.969 8.30083 73.5222 7.58336 73.8485 6.72388Z" fill="#F3F0E0"/>
<path fill-rule="evenodd" clip-rule="evenodd" d="M84.9123 4.57138C83.0851 5.81002 81.4255 7.24502 79.9335 8.87632C79.4866 8.71079 79.1176 8.44173 78.8271 8.06914C80.3025 7.35167 81.4089 6.27544 82.1463 4.84044C83.1111 4.0578 84.0332 3.96811 84.9123 4.57138Z" fill="#F2EFDE"/>
<path fill-rule="evenodd" clip-rule="evenodd" d="M91.5505 7.80005C102.785 13.2578 111.175 21.509 116.721 32.5534C117.09 33.2709 117.09 33.9884 116.721 34.7059C115.466 35.016 114.913 35.7336 115.061 36.8583C116.143 36.3454 117.065 35.6279 117.827 34.7059C118.998 36.0492 119.274 37.4842 118.657 39.0108C119.636 39.7404 120.373 40.727 120.87 41.9705C120.423 42.136 120.054 42.405 119.763 42.7776C121.232 43.8236 121.97 45.2586 121.976 47.0826C121.572 47.735 121.019 48.2731 120.316 48.6969C120.501 48.8763 120.685 49.0557 120.87 49.235C121.433 48.8624 121.986 48.5036 122.529 48.1588C125.57 66.2842 121.421 82.6069 110.082 97.1274C105.94 102.567 100.87 106.782 94.8696 109.773C95.4228 109.235 95.976 108.697 96.5292 108.159C94.5244 108.929 92.8649 110.274 91.5505 112.195C83.855 116.214 75.7414 118.725 67.2101 119.728C62.9687 119.728 58.728 119.728 54.4867 119.728C26.2981 114.503 8.596 99.077 1.38028 73.4503C1.49607 73.1349 1.68047 72.8659 1.93347 72.6431C0.772652 70.1468 0.0350647 67.5461 -0.279297 64.8404C-0.279297 61.6117 -0.279297 58.383 -0.279297 55.1543C0.110837 53.6863 0.479631 52.1616 0.827086 50.5803C0.642691 50.401 0.458292 50.2216 0.273895 50.0422C0.943312 49.483 1.4965 48.8552 1.93347 48.1588C2.27502 48.0992 2.55162 47.9199 2.76326 47.6207C3.60483 48.9905 4.43462 48.9905 5.25262 47.6207C5.66137 47.5502 6.03018 47.6399 6.359 47.8897C4.70359 50.0377 2.85962 52.0108 0.827086 53.809C1.60584 53.9785 2.34343 53.7993 3.03985 53.2709C4.30962 51.4965 5.78479 49.8822 7.46538 48.4278C8.22696 47.76 8.96453 47.6703 9.67815 48.1588C6.5067 63.8374 9.82585 78.3665 19.6356 91.7462C20.9276 93.5791 22.495 95.1934 24.3377 96.5893C26.5636 98.4469 29.053 100.42 31.8058 102.509C30.4286 103.035 30.4286 103.663 31.8058 104.392C31.6199 104.946 31.2511 105.215 30.6994 105.199C30.2553 105.696 30.1631 106.234 30.4228 106.813C30.976 106.096 31.5292 106.096 32.0824 106.813C32.3093 106.06 32.5859 105.342 32.9122 104.661C33.5212 104.07 34.2588 103.98 35.125 104.392C48.6437 111.977 63.211 113.322 78.8271 108.428C79.0113 108.787 79.1961 109.145 79.3803 109.504C79.8704 109.06 80.0546 108.522 79.9335 107.89C82.7935 107.039 85.5594 105.873 88.2313 104.392C102.41 95.6503 111.261 83.5426 114.785 68.0691C114.268 67.4944 114.083 66.7771 114.231 65.9166C116.444 65.7374 116.444 65.5577 114.231 65.3785C114.173 63.9907 114.542 62.7353 115.338 61.6117C115.088 53.3716 113.059 45.2102 109.253 37.1274C109.7 36.9619 110.069 36.6928 110.359 36.3202C109.863 36.2292 109.31 36.0499 108.699 35.7821C110.225 34.267 109.948 33.9083 107.87 34.7059C107.663 34.2129 107.386 33.7644 107.04 33.3606C107.487 33.1951 107.856 32.926 108.146 32.5534C107.323 32.5356 106.585 32.2665 105.933 31.7462C106.671 30.756 106.578 30.4869 105.657 30.9391C105.011 30.0422 104.366 29.1454 103.721 28.2485C104.49 26.9377 104.214 26.579 102.891 27.1722C100.095 24.4526 97.6981 22.1207 95.6994 20.1767C95.7099 19.3117 95.8018 18.4149 95.976 17.4861C95.2242 17.7587 94.671 18.2968 94.3164 19.1005C93.7511 18.9092 93.3821 18.5504 93.2101 18.0243C91.9244 17.5777 90.8181 16.8603 89.8909 15.8718C91.3834 14.9434 92.4898 13.6878 93.2101 12.105C91.9195 12.8225 90.6283 13.54 89.3377 14.2574C90.204 12.6903 91.3104 11.2553 92.6569 9.95252C92.3792 9.4031 92.0107 9.31339 91.5505 9.68346C90.5265 10.6265 89.4202 11.4336 88.2313 12.105C88.9687 10.8494 89.7067 9.59375 90.4441 8.33817C90.9929 8.43051 91.3613 8.2511 91.5505 7.80005Z" fill="#F1EEDC"/>
<path fill-rule="evenodd" clip-rule="evenodd" d="M83.2524 8.33813C83.0682 8.87625 82.6992 9.23501 82.146 9.41437C82.146 8.6969 82.515 8.33813 83.2524 8.33813Z" fill="#F4F1E2"/>
<path fill-rule="evenodd" clip-rule="evenodd" d="M75.5077 8.3381C76.0897 8.25765 76.6429 8.34735 77.1673 8.60716C76.5333 8.95419 75.9801 9.40265 75.5077 9.95245C75.183 9.55779 75.183 9.01968 75.5077 8.3381Z" fill="#F3F0E0"/>
<path fill-rule="evenodd" clip-rule="evenodd" d="M77.7206 8.87622C79.8045 9.27082 79.8969 9.98829 77.9972 11.0287C77.5823 10.6919 77.121 10.4229 76.6143 10.2215C77.3091 9.99717 77.678 9.54876 77.7206 8.87622Z" fill="#F3F1E1"/>
<path fill-rule="evenodd" clip-rule="evenodd" d="M82.1462 9.41437C82.1462 10.1318 82.5152 10.4906 83.2526 10.4906C82.8924 12.2825 82.155 12.4619 81.0398 11.0287C80.7156 11.1413 80.439 11.3207 80.21 11.5668C80.0358 10.8093 80.22 10.0918 80.7632 9.41437C81.1892 8.82346 81.65 8.82346 82.1462 9.41437Z" fill="#F2EFDE"/>
<path fill-rule="evenodd" clip-rule="evenodd" d="M91.5503 7.79994C91.3612 8.25099 90.9927 8.4304 90.444 8.33806C89.0676 9.28262 87.7765 10.3589 86.5716 11.5668C87.028 12.0434 87.5812 12.2227 88.2312 12.1049C87.1077 13.9859 85.6323 14.255 83.8057 12.9121C85.8226 11.1278 87.6664 9.15471 89.3376 6.99277C90.3621 6.57702 91.1 6.84608 91.5503 7.79994Z" fill="#F2EFDE"/>
<path fill-rule="evenodd" clip-rule="evenodd" d="M29.593 12.105C31.616 12.36 31.7082 13.0776 29.8696 14.2574C29.5986 13.5616 29.5063 12.844 29.593 12.105Z" fill="#F1EFDD"/>
<path fill-rule="evenodd" clip-rule="evenodd" d="M33.4653 15.8717C33.7872 15.1016 34.2482 14.3841 34.8483 13.7192C35.3516 15.0349 34.8906 15.7524 33.4653 15.8717Z" fill="#F2EFDE"/>
<path fill-rule="evenodd" clip-rule="evenodd" d="M89.3378 14.2573C89.2609 15.2458 88.892 15.4253 88.2314 14.7954C88.4843 14.3663 88.8532 14.1869 89.3378 14.2573Z" fill="#F2EFDE"/>
<path fill-rule="evenodd" clip-rule="evenodd" d="M104.274 22.8672C104.931 23.9412 104.562 24.3897 103.167 24.2125C103.655 23.8313 104.023 23.3829 104.274 22.8672Z" fill="#F9F8F0"/>
<path fill-rule="evenodd" clip-rule="evenodd" d="M12.4443 26.0959C12.3671 27.0845 11.9983 27.2639 11.3379 26.6341C11.5906 26.2049 11.9595 26.0255 12.4443 26.0959Z" fill="#FAF8F1"/>
<path fill-rule="evenodd" clip-rule="evenodd" d="M110.359 26.634C111.728 26.7668 111.728 27.1255 110.359 27.7103C109.826 27.4575 109.826 27.0987 110.359 26.634Z" fill="#F8F7EF"/>
<path fill-rule="evenodd" clip-rule="evenodd" d="M16.3163 27.7104C16.6167 27.7427 16.8011 27.9221 16.8695 28.2486C15.0607 29.5717 14.8763 29.3923 16.3163 27.7104Z" fill="#FAFAF4"/>
<path fill-rule="evenodd" clip-rule="evenodd" d="M11.3378 29.8628C11.2607 30.8513 10.8919 31.0307 10.2314 30.4009C10.4842 29.9718 10.853 29.7924 11.3378 29.8628Z" fill="#F9F7EF"/>
<path fill-rule="evenodd" clip-rule="evenodd" d="M2.48682 46.0062C2.48682 45.2888 2.48682 44.5712 2.48682 43.8538C4.51451 44.2803 4.51451 44.9978 2.48682 46.0062Z" fill="#F2EFDE"/>
<path fill-rule="evenodd" clip-rule="evenodd" d="M10.2312 43.3157C10.7089 42.7975 11.0777 42.7975 11.3376 43.3157C10.4079 45.1592 9.02488 46.5942 7.18867 47.6206C6.91208 47.3515 6.63548 47.0825 6.35889 46.8134C7.90113 45.8886 9.19189 44.7227 10.2312 43.3157Z" fill="#F2F0E0"/>
<path fill-rule="evenodd" clip-rule="evenodd" d="M2.48672 46.0063C2.30233 46.7238 2.11793 47.4413 1.93353 48.1588C1.44869 48.2293 1.0799 48.0498 0.827148 47.6207C1.03697 46.6988 1.59016 46.1607 2.48672 46.0063Z" fill="#F1EEDC"/>
<path fill-rule="evenodd" clip-rule="evenodd" d="M5.25249 46.0063C5.25249 46.5445 5.25249 47.0826 5.25249 47.6207C3.87808 47.2117 3.87808 46.6736 5.25249 46.0063Z" fill="#F2F0DF"/>
<path fill-rule="evenodd" clip-rule="evenodd" d="M118.104 46.0063C119.963 46.3848 120.147 47.1022 118.657 48.1588C118.725 47.5612 118.541 46.8438 118.104 46.0063Z" fill="#F7F6EC"/>
<path fill-rule="evenodd" clip-rule="evenodd" d="M116.444 51.9255C116.929 51.8551 117.298 52.0345 117.551 52.4637C116.274 53.2027 115.905 53.0234 116.444 51.9255Z" fill="#F9F7EF"/>
<path fill-rule="evenodd" clip-rule="evenodd" d="M4.69922 56.2304C4.9186 55.6788 5.28739 55.589 5.8056 55.9613C6.17441 56.4995 6.54317 57.0376 6.91198 57.5757C6.03661 57.4718 5.29902 57.0236 4.69922 56.2304Z" fill="#FAF9F2"/>
<path fill-rule="evenodd" clip-rule="evenodd" d="M4.69961 56.2305C4.69373 57.4068 4.14054 57.855 3.04004 57.5758C3.52322 57.0134 4.07641 56.5652 4.69961 56.2305Z" fill="#FBFAF4"/>
<path fill-rule="evenodd" clip-rule="evenodd" d="M4.14601 61.6116C5.33292 61.717 5.42512 62.2552 4.42261 63.2259C4.15554 62.7158 4.06334 62.1777 4.14601 61.6116Z" fill="#F8F6EE"/>
<path fill-rule="evenodd" clip-rule="evenodd" d="M116.997 73.9883C117.406 73.9178 117.775 74.0077 118.104 74.2574C117.174 76.0999 116.252 76.2796 115.338 74.7955C115.863 74.4635 116.324 74.5528 116.721 75.0646C116.978 74.7449 117.07 74.386 116.997 73.9883Z" fill="#F8F6ED"/>
<path fill-rule="evenodd" clip-rule="evenodd" d="M3.03972 76.679C4.05595 76.7538 4.24035 77.1127 3.59292 77.7552C3.15172 77.5093 2.96732 77.1503 3.03972 76.679Z" fill="#FAF8F2"/>
<path fill-rule="evenodd" clip-rule="evenodd" d="M114.231 76.679C115.247 76.7538 115.432 77.1127 114.784 77.7552C114.343 77.5093 114.159 77.1503 114.231 76.679Z" fill="#F9F7F0"/>
<path fill-rule="evenodd" clip-rule="evenodd" d="M83.8056 107.352C84.4628 108.426 84.0938 108.874 82.6992 108.697C83.1866 108.316 83.555 107.867 83.8056 107.352Z" fill="#FAF9F2"/>
<path d="M58.9137 15.4212C58.3852 15.9207 58.4456 16.2879 59.2007 17.2722C60.0313 18.3446 60.2578 18.991 60.1521 19.9312C59.986 21.2534 59.4272 21.9879 56.1198 25.1904C52.9182 28.2902 52.1631 29.2157 51.3929 31.0961C50.97 32.1244 50.9398 35.0331 51.3476 36.5022C51.9819 38.8233 53.6733 41.2032 55.3798 42.1874C56.2558 42.6869 59.0497 43.3774 59.4876 43.2158C59.6386 43.157 59.7444 42.9514 59.7444 42.7163C59.7444 42.4225 59.5178 42.114 58.8533 41.497C58.0076 40.7184 57.9623 40.6302 57.6452 39.3669C57.177 37.5305 57.0864 35.6648 57.3884 34.3867C57.8264 32.6239 58.3701 31.7277 60.1823 29.862C62.3117 27.6585 62.9309 26.5126 63.1574 24.309C63.2934 22.884 63.0215 21.459 61.9946 18.5062C60.9827 15.5681 60.6505 15.0539 59.7897 15.0539C59.4423 15.0539 59.1554 15.1715 58.9137 15.4212ZM61.4811 23.9711C61.2848 25.3667 60.6354 26.4098 58.7929 28.2461C57.8566 29.1863 56.7994 30.3175 56.4521 30.7435C55.7272 31.6396 54.9872 33.094 54.8362 33.8873C54.6549 34.7981 54.4586 34.519 54.5492 33.52C54.806 30.9491 56.1652 28.6721 59.1403 25.8221C60.2125 24.8085 61.164 23.8095 61.2697 23.6185C61.5415 23.1191 61.6019 23.2072 61.4811 23.9711Z" fill="#F1EDD3"/>
<path d="M68.1684 21.4333C67.6399 21.6978 67.6248 22.1385 68.1231 23.4019C68.5158 24.3714 68.5913 24.7681 68.5913 25.8258C68.5913 28.1616 68.108 29.043 65.888 30.7912C63.1394 32.9654 62.2182 34.0819 61.4782 36.1827C61.0704 37.3138 61.0251 38.871 61.2819 42.147C61.4027 43.6455 61.4631 43.9099 61.7651 44.1743C61.9464 44.3359 62.0974 44.6444 62.0974 44.8501C62.0974 45.3937 62.9431 46.3779 63.3811 46.3779C63.7284 46.3779 63.7435 46.3485 63.6529 45.379C63.5925 44.6004 63.6378 44.2037 63.8945 43.4692C64.3778 42.0883 64.8309 41.486 67.3076 38.8857C68.5611 37.5783 69.8901 36.0651 70.2676 35.4922C71.2191 34.0966 71.7778 32.4219 71.8685 30.659C71.9742 28.7345 71.7476 27.4565 70.7811 24.6946C70.328 23.4019 69.9505 22.1972 69.9505 22.0209C69.9505 21.7859 69.7995 21.639 69.4068 21.4774C68.7725 21.2276 68.6366 21.213 68.1684 21.4333ZM69.9505 29.9685C69.9505 32.0252 68.8027 33.6265 65.5709 36.168C64.8611 36.7115 64.1664 37.2698 64.0153 37.402C63.7586 37.6223 63.7435 37.6077 63.8341 37.1963C63.8945 36.9466 64.1362 36.3296 64.3929 35.8007C64.7705 35.0221 65.2386 34.4786 67.0056 32.7744C68.5762 31.2466 69.2256 30.5121 69.437 30.0126C69.588 29.6454 69.7693 29.3369 69.8448 29.3369C69.9052 29.3369 69.9505 29.616 69.9505 29.9685Z" fill="#F1EDD3"/>
<path d="M56.4957 49.1379C55.7557 49.2114 51.6781 49.2995 47.4344 49.3142C40.9254 49.3289 39.4454 49.373 37.8597 49.608C36.0625 49.8578 35.9719 49.8578 35.4886 49.608L34.9903 49.3436L34.3409 49.799C32.3323 51.1946 31.8943 53.0309 32.2417 58.584C32.5135 62.903 32.8609 64.4455 33.8727 65.8705C34.2201 66.37 34.5372 67.1045 34.7637 67.9713C36.1531 73.0101 38.207 77.05 40.9858 80.2232C41.5899 80.9283 41.605 80.9724 41.3181 81.0606C41.1368 81.1193 40.6083 81.1193 40.1401 81.0606C39.0074 80.943 37.3613 81.2075 36.3797 81.6629C34.4315 82.5737 33.4196 84.836 34.205 86.4961C34.9148 88.0092 36.9989 89.0669 40.4119 89.6546C44.1724 90.3009 52.1614 90.5801 65.1794 90.5066C73.6668 90.4478 74.0595 90.4332 75.177 90.1393C76.4607 89.7868 77.684 89.2285 78.4693 88.6262C78.7562 88.4059 79.164 88.1708 79.3754 88.112C80.0852 87.8917 80.7044 87.2894 81.2481 86.261C81.8824 85.0711 81.9126 84.7038 81.4746 83.2788C81.0216 81.7804 80.2966 81.134 77.9407 80.1351C76.9591 79.709 75.9925 79.3271 75.7962 79.283C75.464 79.1949 75.4942 79.1508 76.3399 78.1959C76.8232 77.6377 77.4423 76.9031 77.7142 76.5359L78.1975 75.8895L78.9677 76.1686C80.1003 76.5946 82.4109 76.6828 84.1024 76.3743C90.2036 75.2431 95.5196 70.7772 97.4376 65.1213C97.8151 64.0048 97.8604 63.6522 97.8604 61.8893C97.8604 60.3762 97.8 59.7005 97.5886 59.0394C96.6976 56.1453 94.7343 54.2943 91.9253 53.6626C90.6567 53.3688 88.1196 53.4423 86.7302 53.7948C85.3861 54.1327 84.042 54.7791 83.1661 55.5136L82.562 56.0131L82.4563 55.3373C82.3958 54.8966 82.4109 54.5441 82.5318 54.3678C82.7432 54.0446 82.7432 53.6186 82.5469 53.4276C82.4563 53.3394 82.4563 52.9722 82.5771 52.3845C82.7734 51.3709 82.5922 50.9302 82.0485 51.0771C81.8522 51.1212 81.6407 51.0036 81.384 50.7245C81.1877 50.4895 80.8101 50.2397 80.5383 50.1516C80.2664 50.0781 78.2881 49.9753 76.1285 49.9312C73.0627 49.8725 71.3562 49.7696 68.3509 49.417C65.0435 49.0351 64.0317 48.9616 61.1774 48.991C59.35 48.991 57.2508 49.0645 56.4957 49.1379ZM79.9342 52.4433C80.2966 52.5902 80.5836 52.7518 80.5836 52.8106C80.5836 52.884 80.2966 52.9281 79.9342 52.9281C79.2244 52.9281 76.8836 53.1925 76.4607 53.3101C76.2493 53.3835 76.204 53.5157 76.2342 54.0005L76.2795 54.6175L78.1521 54.6469C79.1942 54.6763 80.055 54.7203 80.0852 54.7497C80.1154 54.7644 80.0852 55.2492 80.0248 55.8074L79.904 56.8211L78.6203 56.9386C77.9105 56.9974 76.0832 57.0855 74.5427 57.159L71.7488 57.2618V57.776V58.2902L74.3917 58.3342C76.8081 58.3636 78.6354 58.1873 79.6322 57.8201C79.7681 57.7613 79.8285 57.9082 79.8285 58.3195V58.9072L78.5901 59.0834C76.3097 59.4213 75.6754 59.5976 75.6301 59.9355C75.5848 60.2146 75.6754 60.2587 76.4305 60.3468C76.8987 60.4056 77.8199 60.4056 78.4844 60.3615L79.6775 60.2587V60.9198V61.5955H79.0432C78.6807 61.5955 77.7897 61.6837 77.0346 61.8012C74.4974 62.1832 73.7121 62.2272 73.5007 61.9775C73.3799 61.8453 73.1987 61.7424 73.0929 61.7424C72.9117 61.7424 72.8362 61.904 72.655 62.8002C72.5191 63.5347 73.7725 63.8873 77.0799 64.0342L79.4811 64.137L79.2244 65.2241C79.0734 65.8264 78.9375 66.3259 78.9073 66.3553C78.877 66.37 78.4995 66.4581 78.0766 66.561C77.4726 66.6932 77.0195 66.6785 75.9019 66.5022C75.1317 66.3847 74.0897 66.2965 73.5762 66.3259C72.655 66.37 72.655 66.37 72.6097 66.8401C72.5795 67.1926 72.6399 67.3396 72.8815 67.4718C73.0627 67.5599 73.3346 67.7656 73.4856 67.9125C74.0293 68.4413 76.5966 68.4854 77.8199 67.9859C78.1219 67.8537 78.3787 67.7803 78.4089 67.8097C78.5146 67.8978 77.5179 70.0573 77.3064 70.2336C77.1403 70.3364 76.5362 70.4099 75.6754 70.4099C72.957 70.4099 71.5978 70.9094 72.3529 71.6439C72.5493 71.8349 72.5191 71.8643 72.1264 71.9524C71.8697 72.0112 71.6733 72.0993 71.6733 72.1581C71.6733 72.305 74.1803 72.6722 75.2525 72.6722L76.0227 72.6869L75.7811 73.0983C75.6301 73.3333 75.177 73.965 74.7542 74.4939L73.984 75.4781L72.1868 75.4928C70.2839 75.5222 68.3509 75.7279 67.2786 76.0364C66.4178 76.2714 66.3574 76.7121 67.1427 76.9178C67.4296 76.9913 67.8374 77.1676 68.0488 77.2998C68.6529 77.7111 68.955 77.7993 70.2386 77.8874L71.4317 77.9755L70.5407 78.666C70.0423 79.0626 69.1966 79.5915 68.6529 79.8706L67.6713 80.3554L66.6141 80.091C64.4696 79.5327 61.9627 79.5474 61.7814 80.1204C61.6304 80.5611 61.8419 80.9724 62.2647 81.0899C62.4912 81.134 62.8839 81.325 63.1557 81.5013L63.639 81.8245L62.4912 82.133C61.6455 82.3533 60.3014 82.5149 57.5226 82.6912L53.7169 82.941L52.841 82.6031C46.483 80.1497 41.6352 75.581 38.5544 69.1465C36.3193 64.4749 35.2621 58.819 35.685 53.6773L35.7756 52.4433L36.6968 52.5461C39.9438 52.8987 42.7075 52.9281 55.6651 52.7665C66.2215 52.649 69.9064 52.649 71.8546 52.7812C74.4823 52.9722 76.6721 52.84 78.273 52.4139C79.2395 52.1495 79.2093 52.1495 79.9342 52.4433ZM90.7775 56.16C93.5412 56.8505 94.8098 58.2902 94.8098 60.7729C94.8249 63.5347 93.2241 66.8401 90.7926 69.0584C89.071 70.6156 86.5187 72.1287 84.6612 72.6869C83.5134 73.0248 80.0399 73.1864 80.1607 72.8926C80.206 72.7751 80.4024 72.3197 80.5836 71.8789L80.9309 71.071L82.1089 71.1297C86.4281 71.3207 90.702 68.7058 92.0914 65.0478C92.3481 64.3721 92.4237 63.8285 92.4237 62.7708C92.4388 61.5662 92.3784 61.2577 92.0461 60.5525C91.3061 59.0394 89.5392 58.2167 87.0322 58.2167C85.4314 58.2314 84.5857 58.3783 83.5889 58.8778L82.8791 59.2157L82.8036 58.5252C82.7281 57.9376 82.7734 57.7907 83.1207 57.4381C83.3473 57.2031 83.755 56.8799 84.042 56.7183C85.4465 55.8662 88.5726 55.6165 90.7775 56.16ZM88.0591 60.5819C88.8143 60.7876 89.5694 61.5662 89.7053 62.2566C89.8412 62.9324 89.4938 64.1076 88.9049 64.9744C88.3763 65.753 87.3493 66.5463 86.0808 67.1633C85.1595 67.604 82.0032 68.6029 81.8824 68.4854C81.8522 68.456 81.9428 67.8684 82.1089 67.178C82.2599 66.4875 82.5318 64.9303 82.713 63.7257C82.9546 62.0509 83.1056 61.4633 83.3171 61.2577C83.4832 61.1107 83.604 60.9345 83.604 60.8757C83.604 60.4791 86.8963 60.2734 88.0591 60.5819ZM72.7607 82.4855C72.7456 82.6178 72.8362 82.794 72.9872 82.8675C73.3195 83.0438 75.5999 83.3376 76.944 83.3817C77.7142 83.4111 77.9407 83.4698 78.1068 83.7049C78.3032 83.9987 78.3032 84.0134 77.0648 83.8958C75.917 83.8077 73.3799 83.9546 72.8362 84.1603C72.2623 84.3659 72.3831 85.1739 73.0023 85.409C73.2289 85.4971 74.0444 85.6 74.8146 85.644C75.5697 85.6881 76.204 85.7762 76.204 85.8203C76.204 85.8644 75.1317 86.1435 73.8178 86.4226L71.4468 86.9368L63.1406 86.9515C58.5798 86.9662 53.0071 87.0543 50.7569 87.1572C46.0903 87.3628 43.0397 87.2747 40.5781 86.8487C38.4487 86.4814 37.4519 86.0554 37.5123 85.5412C37.5878 84.8654 38.3882 84.2484 39.5511 83.9987C41.3785 83.5873 42.7377 83.5727 44.2328 83.9105C44.9577 84.0868 45.8034 84.219 46.1205 84.219C46.4226 84.219 47.1626 84.3513 47.7365 84.5275C48.3708 84.7038 49.594 84.8801 50.8324 84.9536C52.2973 85.0417 53.3998 85.218 54.759 85.5706C56.4957 85.9966 56.8279 86.0407 58.912 86.0407C60.3467 86.026 61.7059 85.9378 62.6121 85.7762C65.2549 85.3208 68.7737 83.984 71.0239 82.6031C71.8546 82.0889 72.8362 82.0154 72.7607 82.4855Z" fill="#F1EDD3"/>
<path d="M38.2381 56.2428C37.7397 56.4926 37.5736 56.948 37.8908 57.2565C37.9814 57.3446 37.8908 57.6825 37.6189 58.1967C37.2263 58.9753 37.2112 59.0928 37.2263 61.2817C37.2263 63.2356 37.2867 63.8085 37.6491 65.3216C38.1928 67.5987 38.6459 68.7886 39.6879 70.7571C40.3826 72.0793 40.7602 72.5935 41.7569 73.5777C42.5573 74.371 43.2218 74.8999 43.7202 75.1056C44.1279 75.2818 44.6867 75.6197 44.9586 75.8401C45.2304 76.0751 45.6231 76.2661 45.8345 76.2661C46.2875 76.2661 46.952 75.6638 46.952 75.2378C46.952 75.0615 46.5443 74.1801 46.061 73.2839C44.0977 69.67 43.2067 66.4381 42.8745 61.7959C42.6328 58.3289 42.4969 57.6972 41.8324 57.0214C41.4247 56.5954 41.1075 56.4191 40.6394 56.3457C40.292 56.2869 40.0051 56.1988 40.0051 56.1253C40.0051 55.905 38.7516 55.9931 38.2381 56.2428ZM40.6696 58.4317C41.0169 59.0781 41.0471 59.6951 40.8508 63.118C40.7602 64.8662 40.7904 65.5714 40.9716 66.5703C41.0924 67.2461 41.183 67.8337 41.1528 67.8631C41.0622 67.9512 40.1561 65.7183 39.9144 64.7781C39.703 64.0289 39.6728 63.4119 39.7634 61.4286C39.8993 57.6385 40.0353 57.2271 40.6696 58.4317Z" fill="#F1EDD3"/>
<path d="M47.66 77.1863C47.509 77.2157 47.3882 77.3332 47.3882 77.4508C47.3882 77.583 47.7506 77.7005 48.4453 77.818C49.5478 77.9943 50.4539 78.4644 50.5294 78.8904C50.62 79.3018 49.88 79.1989 49.3062 78.6995C48.7323 78.2147 48.4302 78.1559 48.1433 78.4791C47.9621 78.6848 48.0074 78.9639 48.3245 79.7572C48.6417 80.5799 50.1217 81.0793 51.0731 80.6974C51.6923 80.4476 51.9188 80.0804 51.9188 79.3312C51.9188 77.9209 50.8013 77.0688 48.9739 77.0982C48.4 77.1129 47.7959 77.1423 47.66 77.1863Z" fill="#F1EDD3"/>
</g>
<defs>
<clipPath id="clip0_173_2727">
<rect width="130" height="120" fill="white"/>
</clipPath>
</defs>
</svg>
