<svg width="230" height="80" viewBox="0 0 230 80" fill="none" xmlns="http://www.w3.org/2000/svg">
<path d="M121.875 39H113.625L104.648 24.5625L101.578 26.7656V39H94.3125V4.73438H101.578V20.4141C102.062 19.7422 102.539 19.0703 103.008 18.3984C103.477 17.7266 103.953 17.0547 104.438 16.3828L113.719 4.73438H121.781L109.828 19.8984L121.875 39ZM145.922 39H126.188V4.73438H145.922V10.6875H133.453V18.2109H145.055V24.1641H133.453V33H145.922V39ZM153.094 39V4.73438H160.359V33H174.258V39H153.094ZM208.664 21.5391C208.664 25.3984 207.922 28.625 206.438 31.2188C204.969 33.7969 202.836 35.7422 200.039 37.0547C197.242 38.3516 193.875 39 189.938 39H180.234V4.73438H190.992C194.586 4.73438 197.703 5.375 200.344 6.65625C202.984 7.92188 205.031 9.80469 206.484 12.3047C207.938 14.7891 208.664 17.8672 208.664 21.5391ZM201.117 21.7266C201.117 19.1953 200.742 17.1172 199.992 15.4922C199.258 13.8516 198.164 12.6406 196.711 11.8594C195.273 11.0781 193.492 10.6875 191.367 10.6875H187.5V33H190.617C194.164 33 196.797 32.0547 198.516 30.1641C200.25 28.2734 201.117 25.4609 201.117 21.7266ZM215.766 39V4.73438H223.031V39H215.766Z" fill="#F1EDD3"/>
<path d="M108.867 48.0006C107.477 48.0006 106.242 48.274 105.164 48.8209C104.102 49.3522 103.203 50.1256 102.469 51.1412C101.75 52.1568 101.203 53.3834 100.828 54.8209C100.453 56.2584 100.266 57.8756 100.266 59.6725C100.266 62.0943 100.562 64.1647 101.156 65.8834C101.766 67.5865 102.703 68.8912 103.969 69.7975C105.234 70.6881 106.867 71.1334 108.867 71.1334C110.258 71.1334 111.648 70.9772 113.039 70.6647C114.445 70.3522 115.969 69.9068 117.609 69.3287V75.4225C116.094 76.0475 114.602 76.4928 113.133 76.7584C111.664 77.0397 110.016 77.1803 108.188 77.1803C104.656 77.1803 101.75 76.4537 99.4688 75.0006C97.2031 73.5318 95.5234 71.485 94.4297 68.86C93.3359 66.2193 92.7891 63.1412 92.7891 59.6256C92.7891 57.0318 93.1406 54.6568 93.8438 52.5006C94.5469 50.3443 95.5781 48.4772 96.9375 46.899C98.2969 45.3209 99.9766 44.1022 101.977 43.2428C103.977 42.3834 106.273 41.9537 108.867 41.9537C110.57 41.9537 112.273 42.1725 113.977 42.61C115.695 43.0318 117.336 43.6178 118.898 44.3678L116.555 50.274C115.273 49.6647 113.984 49.1334 112.688 48.6803C111.391 48.2272 110.117 48.0006 108.867 48.0006ZM160.823 59.5318C160.823 62.1725 160.495 64.5787 159.839 66.7506C159.183 68.9068 158.183 70.7662 156.839 72.3287C155.511 73.8912 153.823 75.0943 151.777 75.9381C149.73 76.7662 147.308 77.1803 144.511 77.1803C141.714 77.1803 139.292 76.7662 137.245 75.9381C135.198 75.0943 133.503 73.8912 132.159 72.3287C130.831 70.7662 129.839 68.899 129.183 66.7272C128.527 64.5553 128.198 62.1412 128.198 59.485C128.198 55.9381 128.777 52.8522 129.933 50.2272C131.105 47.5865 132.902 45.5397 135.323 44.0865C137.745 42.6334 140.823 41.9068 144.558 41.9068C148.277 41.9068 151.331 42.6334 153.722 44.0865C156.128 45.5397 157.909 47.5865 159.066 50.2272C160.237 52.8678 160.823 55.9693 160.823 59.5318ZM135.816 59.5318C135.816 61.9225 136.112 63.985 136.706 65.7193C137.316 67.4381 138.261 68.7662 139.542 69.7037C140.823 70.6256 142.48 71.0865 144.511 71.0865C146.573 71.0865 148.245 70.6256 149.527 69.7037C150.808 68.7662 151.737 67.4381 152.316 65.7193C152.909 63.985 153.206 61.9225 153.206 59.5318C153.206 55.9381 152.534 53.11 151.191 51.0475C149.847 48.985 147.636 47.9537 144.558 47.9537C142.511 47.9537 140.839 48.4225 139.542 49.36C138.261 50.2818 137.316 51.61 136.706 53.3443C136.112 55.0631 135.816 57.1256 135.816 59.5318ZM179.873 76.7115H172.725V42.4459H192.366V48.399H179.873V57.235H191.498V63.1647H179.873V76.7115ZM211.017 76.7115H203.869V42.4459H223.509V48.399H211.017V57.235H222.642V63.1647H211.017V76.7115Z" fill="#F1EDD3"/>
<g clip-path="url(#clip0_173_2996)">
<path fill-rule="evenodd" clip-rule="evenodd" d="M37.7216 -0.181137C40.147 -0.181137 42.5728 -0.181137 44.9982 -0.181137C44.6907 0.150047 44.6267 0.508789 44.8067 0.895096C46.7568 -0.0200167 48.6717 -0.0200167 50.5514 0.895096C50.8291 0.694734 51.1481 0.575154 51.5088 0.536352C53.4413 1.0188 55.3562 1.55692 57.2535 2.1507C56.3156 3.01339 55.4217 3.91024 54.5727 4.84128C53.3031 5.45711 52.9201 5.21793 53.4237 4.1238C54.0863 3.93524 54.5972 3.57649 54.9556 3.04756C54.4953 2.72277 53.9844 2.72277 53.4237 3.04756C53.773 2.60337 53.837 2.12504 53.6152 1.61258C52.7807 2.27561 52.0783 3.05289 51.5088 3.94442C50.9983 4.1836 50.4874 4.1836 49.9769 3.94442C50.5081 3.12167 50.9551 2.34439 51.3173 1.61258C50.2959 2.56924 49.2749 3.52589 48.2535 4.48254C47.9981 4.1238 47.9981 3.76505 48.2535 3.40631C48.9172 2.81547 49.6192 2.27735 50.3599 1.79196C50.1684 1.61258 49.9769 1.43321 49.7854 1.25384C48.764 1.97133 47.8705 2.8084 47.1046 3.76505C46.9426 3.24269 46.6236 3.06332 46.1471 3.22693C45.7822 3.92835 45.2713 4.52624 44.6152 5.02066C44.7428 5.14023 44.8707 5.25983 44.9982 5.3794C40.9206 5.35992 36.8993 5.77843 32.9344 6.63501C32.2792 6.65678 31.7686 6.41764 31.4025 5.91752C30.3359 6.98607 29.1231 7.82313 27.7642 8.42873C27.6365 8.36893 27.5088 8.30916 27.3812 8.24936C27.8358 7.88362 28.2188 7.46511 28.5301 6.99375C28.338 6.62747 28.0827 6.56767 27.7642 6.81438C26.8706 7.71124 25.9769 8.6081 25.0833 9.50496C24.9557 9.38539 24.828 9.26579 24.7003 9.14622C25.449 8.26457 26.2788 7.42747 27.1897 6.63501C27.4531 6.33664 27.3892 6.09746 26.9982 5.91752C25.2708 7.49169 23.5474 9.04627 21.828 10.5812C21.8848 10.1059 21.821 9.68735 21.6365 9.32559C22.2038 8.97391 22.7145 8.55537 23.1684 8.06998C23.3928 8.14507 23.5843 8.26464 23.7429 8.42873C23.9479 6.2632 23.4373 6.2632 22.211 8.42873C22.1471 8.18955 22.0833 7.95041 22.0195 7.71124C22.8071 6.94127 23.3816 6.10417 23.7429 5.20003C21.3373 6.7474 19.167 8.54112 17.2322 10.5812C17.1046 10.9399 16.9769 11.2987 16.8493 11.6574C16.5073 11.2229 16.1882 11.2229 15.8918 11.6574C16.3602 12.057 16.8708 12.1168 17.4237 11.8368C17.8562 10.7739 18.6221 9.99666 19.7216 9.50496C20.0011 10.0193 20.3841 10.4378 20.8705 10.7606C20.7429 10.8801 20.6152 10.9997 20.4876 11.1193C21.415 11.1678 22.3086 10.9884 23.1684 10.5812C16.5521 14.6914 11.6372 20.1921 8.42373 27.0834C7.44476 27.3414 6.99794 27.9393 7.0833 28.8772C6.68041 28.8235 6.29743 28.8833 5.93437 29.0565C5.31635 29.8195 4.5504 30.3576 3.6365 30.6709C4.1207 29.4532 4.75897 28.5563 5.55139 27.9803C5.48755 27.8009 5.42374 27.6216 5.3599 27.4422C4.74752 28.0004 4.17305 28.5983 3.6365 29.2359C3.50884 29.0565 3.38118 28.8772 3.25352 28.6978C3.9361 27.8924 4.70206 27.175 5.55139 26.5453C5.16841 26.3061 4.78543 26.3061 4.40245 26.5453C3.54958 27.5982 2.5283 28.3157 1.33862 28.6978C2.38961 25.9506 3.60237 23.26 4.97692 20.626C11.8661 9.53395 21.8873 2.8374 35.0408 0.536352C35.3237 0.489353 35.5791 0.549145 35.8067 0.715724C35.5186 0.956355 35.3909 1.25531 35.4237 1.61258C35.9344 1.13426 36.445 0.655932 36.9556 0.177607C37.3354 0.239161 37.5907 0.119579 37.7216 -0.181137Z" fill="#F1EFDD"/>
<path fill-rule="evenodd" clip-rule="evenodd" d="M35.0408 0.536353C35.5841 0.195135 36.2224 0.0755536 36.9557 0.177609C36.445 0.655934 35.9344 1.13426 35.4238 1.61259C35.3909 1.25531 35.5186 0.956357 35.8067 0.715725C35.5791 0.549146 35.3238 0.489354 35.0408 0.536353Z" fill="#F7F6EC"/>
<path fill-rule="evenodd" clip-rule="evenodd" d="M45.764 1.61258C46.6962 1.91896 46.6322 2.27771 45.5725 2.68881C45.3925 2.30251 45.4565 1.94376 45.764 1.61258Z" fill="#F8F7EF"/>
<path fill-rule="evenodd" clip-rule="evenodd" d="M58.7854 3.04756C59.8114 3.10947 60.7053 3.46822 61.4663 4.12379C60.5682 4.84616 59.8022 5.68326 59.1684 6.63501C58.695 6.90256 58.1841 7.02216 57.6365 6.99375C57.9609 6.46772 58.4714 6.16878 59.1684 6.09689C58.9286 5.82769 58.7372 5.52871 58.5939 5.20003C58.3369 5.46995 58.0179 5.58955 57.6365 5.55877C57.8444 4.64814 58.2274 3.81104 58.7854 3.04756Z" fill="#F2EFDE"/>
<path fill-rule="evenodd" clip-rule="evenodd" d="M53.4237 3.04756C53.4237 3.40631 53.4237 3.76505 53.4237 4.12379C52.0603 4.04577 52.0603 3.68702 53.4237 3.04756Z" fill="#F1EEDC"/>
<path fill-rule="evenodd" clip-rule="evenodd" d="M49.211 4.12379C49.5836 4.2984 49.9666 4.47777 50.3599 4.66191C49.751 5.03709 49.1765 5.45563 48.6365 5.91752C48.5668 5.26094 48.7583 4.66302 49.211 4.12379Z" fill="#F2EFDE"/>
<path fill-rule="evenodd" clip-rule="evenodd" d="M46.913 4.12379C47.7966 4.44846 47.7966 4.92677 46.913 5.55877C46.4818 5.08939 46.4818 4.61108 46.913 4.12379Z" fill="#F2EFDE"/>
<path fill-rule="evenodd" clip-rule="evenodd" d="M51.1257 4.48254C51.7864 4.60541 51.9779 4.96416 51.7002 5.55878C51.1491 6.10188 50.5746 6.22149 49.9768 5.91752C50.5168 5.53384 50.8998 5.05553 51.1257 4.48254Z" fill="#F3F0E0"/>
<path fill-rule="evenodd" clip-rule="evenodd" d="M58.7853 3.04757C57.5203 3.87333 56.3714 4.82999 55.3385 5.91752C55.029 5.80717 54.7736 5.6278 54.5725 5.37941C55.5939 4.90109 56.3599 4.18361 56.8704 3.22694C57.5383 2.70518 58.1767 2.64539 58.7853 3.04757Z" fill="#F2EFDE"/>
<path fill-rule="evenodd" clip-rule="evenodd" d="M63.3811 5.20003C71.159 8.83856 76.9673 14.3393 80.8066 21.7023C81.0621 22.1806 81.0621 22.6589 80.8066 23.1372C79.938 23.344 79.5551 23.8224 79.6577 24.5722C80.4064 24.2302 81.0449 23.7519 81.5726 23.1372C82.383 24.0328 82.5745 24.9895 82.1471 26.0072C82.8249 26.4936 83.3354 27.1513 83.679 27.9803C83.3695 28.0906 83.1141 28.27 82.913 28.5184C83.9298 29.2157 84.4407 30.1724 84.4449 31.3884C84.1654 31.8233 83.7824 32.1821 83.296 32.4646C83.4235 32.5842 83.5515 32.7038 83.679 32.8233C84.0689 32.5749 84.4518 32.3357 84.8279 32.1059C86.9328 44.1894 84.0604 55.0712 76.2109 64.7516C73.3432 68.3778 69.8328 71.1878 65.679 73.1821C66.062 72.8233 66.4449 72.4646 66.8279 72.1059C65.44 72.6192 64.2911 73.5161 63.3811 74.7964C58.0535 77.4763 52.4363 79.1502 46.53 79.8189C43.5938 79.8189 40.6578 79.8189 37.7215 79.8189C18.2064 76.3351 5.95108 66.0513 0.955577 48.9668C1.03574 48.7566 1.1634 48.5772 1.33856 48.4287C0.534913 46.7645 0.0242756 45.0307 -0.193359 43.2269C-0.193359 41.0745 -0.193359 38.922 -0.193359 36.7695C0.0767333 35.7908 0.332053 34.7744 0.572598 33.7202C0.44494 33.6006 0.317279 33.481 0.189619 33.3615C0.653062 32.9887 1.03604 32.5701 1.33856 32.1059C1.57501 32.0661 1.7665 31.9466 1.91302 31.7471C2.49565 32.6603 3.07012 32.6603 3.63643 31.7471C3.91941 31.7001 4.17474 31.7599 4.40239 31.9265C3.25633 33.3585 1.97973 34.6739 0.572598 35.8727C1.11174 35.9857 1.62238 35.8662 2.10451 35.5139C2.98358 34.331 4.00485 33.2548 5.16834 32.2852C5.69559 31.84 6.20622 31.7802 6.70026 32.1059C4.50464 42.5582 6.80251 52.2443 13.5939 61.1642C14.4884 62.386 15.5735 63.4623 16.8492 64.3929C18.3902 65.6312 20.1136 66.9464 22.0194 68.339C21.0659 68.6903 21.0659 69.1089 22.0194 69.5947C21.8907 69.9642 21.6354 70.1435 21.2535 70.1328C20.946 70.4639 20.8821 70.8226 21.062 71.209C21.4449 70.7308 21.8279 70.7308 22.2109 71.209C22.368 70.7064 22.5594 70.2282 22.7854 69.774C23.207 69.3801 23.7176 69.3202 24.3173 69.5947C33.6764 74.6512 43.7615 75.548 54.5726 72.2852C54.7001 72.5245 54.828 72.7634 54.9556 73.0027C55.2949 72.7068 55.4224 72.348 55.3386 71.9265C57.3186 71.3593 59.2335 70.5823 61.0832 69.5947C70.899 63.7668 77.0266 55.6951 79.4662 45.3794C79.1085 44.9963 78.9806 44.5181 79.0832 43.9444C80.6152 43.825 80.6152 43.7051 79.0832 43.5857C79.0426 42.6605 79.2981 41.8235 79.8492 41.0745C79.6761 35.5811 78.2717 30.1402 75.6364 24.7516C75.9459 24.6412 76.2013 24.4619 76.4024 24.2135C76.0589 24.1528 75.6759 24.0332 75.2534 23.8547C76.3093 22.8447 76.1178 22.6055 74.679 23.1372C74.5358 22.8086 74.3443 22.5096 74.1045 22.2404C74.414 22.13 74.6694 21.9507 74.8705 21.7023C74.3002 21.6904 73.7897 21.511 73.3386 21.1642C73.8491 20.504 73.7851 20.3246 73.1471 20.626C72.7001 20.0281 72.2536 19.4302 71.8066 18.8323C72.3394 17.9585 72.1479 17.7193 71.2322 18.1148C69.2966 16.3017 67.6372 14.7471 66.2534 13.4511C66.2607 12.8745 66.3243 12.2766 66.4449 11.6574C65.9245 11.8391 65.5415 12.1979 65.296 12.7337C64.9046 12.6061 64.6492 12.367 64.53 12.0162C63.64 11.7185 62.874 11.2402 62.2322 10.5812C63.2654 9.96229 64.0314 9.12519 64.53 8.06998C63.6366 8.5483 62.7427 9.02665 61.8492 9.50496C62.4489 8.46019 63.2149 7.50353 64.1471 6.63501C63.9548 6.26873 63.6997 6.20892 63.3811 6.45563C62.6722 7.0843 61.9063 7.62241 61.0832 8.06998C61.5938 7.23292 62.1046 6.39583 62.6152 5.55877C62.9951 5.62033 63.2501 5.50073 63.3811 5.20003Z" fill="#F1EEDC"/>
<path fill-rule="evenodd" clip-rule="evenodd" d="M57.6363 5.55878C57.5088 5.91752 57.2533 6.1567 56.8704 6.27627C56.8704 5.79795 57.1258 5.55878 57.6363 5.55878Z" fill="#F4F1E2"/>
<path fill-rule="evenodd" clip-rule="evenodd" d="M52.2748 5.55878C52.6777 5.50515 53.0607 5.56495 53.4237 5.73816C52.9849 5.96951 52.6019 6.26849 52.2748 6.63502C52.05 6.37191 52.05 6.01317 52.2748 5.55878Z" fill="#F3F0E0"/>
<path fill-rule="evenodd" clip-rule="evenodd" d="M53.8067 5.91751C55.2494 6.18058 55.3134 6.65889 53.9982 7.35249C53.711 7.12799 53.3916 6.94861 53.0408 6.81437C53.5218 6.66481 53.7772 6.36587 53.8067 5.91751Z" fill="#F3F1E1"/>
<path fill-rule="evenodd" clip-rule="evenodd" d="M56.8705 6.27626C56.8705 6.75457 57.1259 6.99375 57.6364 6.99375C57.3871 8.18836 56.8766 8.30793 56.1045 7.35249C55.8801 7.42758 55.6886 7.54715 55.5301 7.71124C55.4094 7.20619 55.537 6.72788 55.913 6.27626C56.2079 5.88232 56.527 5.88232 56.8705 6.27626Z" fill="#F2EFDE"/>
<path fill-rule="evenodd" clip-rule="evenodd" d="M63.3812 5.20002C63.2503 5.50072 62.9952 5.62033 62.6153 5.55877C61.6624 6.18847 60.7686 6.90596 59.9344 7.71123C60.2504 8.02897 60.6334 8.14854 61.0834 8.06998C60.3055 9.32401 59.2841 9.50338 58.0195 8.6081C59.4159 7.41861 60.6923 6.1032 61.8493 4.66191C62.5586 4.38474 63.0695 4.56411 63.3812 5.20002Z" fill="#F2EFDE"/>
<path fill-rule="evenodd" clip-rule="evenodd" d="M20.4874 8.06998C21.8879 8.24002 21.9517 8.71837 20.6789 9.50495C20.4912 9.04103 20.4274 8.56268 20.4874 8.06998Z" fill="#F1EFDD"/>
<path fill-rule="evenodd" clip-rule="evenodd" d="M23.1685 10.5812C23.3913 10.0678 23.7104 9.58947 24.1259 9.14621C24.4743 10.0233 24.1552 10.5016 23.1685 10.5812Z" fill="#F2EFDE"/>
<path fill-rule="evenodd" clip-rule="evenodd" d="M61.8492 9.50496C61.796 10.164 61.5405 10.2836 61.0833 9.8637C61.2583 9.5776 61.5137 9.458 61.8492 9.50496Z" fill="#F2EFDE"/>
<path fill-rule="evenodd" clip-rule="evenodd" d="M72.1895 15.2449C72.6445 15.9609 72.3891 16.2599 71.4236 16.1417C71.761 15.8876 72.0161 15.5887 72.1895 15.2449Z" fill="#F9F8F0"/>
<path fill-rule="evenodd" clip-rule="evenodd" d="M8.61508 17.3973C8.56165 18.0563 8.30636 18.176 7.84912 17.7561C8.0241 17.47 8.27944 17.3504 8.61508 17.3973Z" fill="#FAF8F1"/>
<path fill-rule="evenodd" clip-rule="evenodd" d="M76.4023 17.7561C77.3502 17.8446 77.3502 18.0838 76.4023 18.4736C76.0335 18.305 76.0335 18.0659 76.4023 17.7561Z" fill="#F8F7EF"/>
<path fill-rule="evenodd" clip-rule="evenodd" d="M11.2961 18.4736C11.5041 18.4951 11.6317 18.6147 11.6791 18.8323C10.4269 19.7144 10.2992 19.5948 11.2961 18.4736Z" fill="#FAFAF4"/>
<path fill-rule="evenodd" clip-rule="evenodd" d="M7.84921 19.9086C7.79578 20.5676 7.54049 20.6872 7.08325 20.2673C7.25823 19.9812 7.51357 19.8616 7.84921 19.9086Z" fill="#F9F7EF"/>
<path fill-rule="evenodd" clip-rule="evenodd" d="M1.72144 30.6709C1.72144 30.1926 1.72144 29.7142 1.72144 29.2359C3.12522 29.5203 3.12522 29.9986 1.72144 30.6709Z" fill="#F2EFDE"/>
<path fill-rule="evenodd" clip-rule="evenodd" d="M7.08319 28.8772C7.4139 28.5317 7.66923 28.5317 7.84915 28.8772C7.20548 30.1062 6.24803 31.0629 4.97681 31.7471C4.78532 31.5677 4.59383 31.3884 4.40234 31.209C5.47005 30.5925 6.36365 29.8152 7.08319 28.8772Z" fill="#F2F0E0"/>
<path fill-rule="evenodd" clip-rule="evenodd" d="M1.72145 30.6709C1.59379 31.1492 1.46613 31.6275 1.33847 32.1059C1.00281 32.1528 0.747489 32.0332 0.57251 31.7471C0.71777 31.1326 1.10075 30.7738 1.72145 30.6709Z" fill="#F1EEDC"/>
<path fill-rule="evenodd" clip-rule="evenodd" d="M3.63649 30.6709C3.63649 31.0296 3.63649 31.3884 3.63649 31.7471C2.68497 31.4744 2.68497 31.1157 3.63649 30.6709Z" fill="#F2F0DF"/>
<path fill-rule="evenodd" clip-rule="evenodd" d="M81.7642 30.6709C83.0514 30.9232 83.1789 31.4015 82.1471 32.1059C82.1946 31.7075 82.0671 31.2292 81.7642 30.6709Z" fill="#F7F6EC"/>
<path fill-rule="evenodd" clip-rule="evenodd" d="M80.615 34.6171C80.9505 34.5701 81.206 34.6897 81.381 34.9758C80.4971 35.4685 80.2416 35.349 80.615 34.6171Z" fill="#F9F7EF"/>
<path fill-rule="evenodd" clip-rule="evenodd" d="M3.25342 37.487C3.4053 37.1193 3.66061 37.0594 4.01938 37.3077C4.27471 37.6664 4.53 38.0251 4.78533 38.3839C4.17931 38.3146 3.66866 38.0158 3.25342 37.487Z" fill="#FAF9F2"/>
<path fill-rule="evenodd" clip-rule="evenodd" d="M3.25343 37.487C3.24935 38.2712 2.86637 38.5701 2.10449 38.3839C2.439 38.009 2.82198 37.7102 3.25343 37.487Z" fill="#FBFAF4"/>
<path fill-rule="evenodd" clip-rule="evenodd" d="M2.87039 41.0745C3.6921 41.1448 3.75593 41.5035 3.06188 42.1507C2.87699 41.8106 2.81316 41.4519 2.87039 41.0745Z" fill="#F8F6EE"/>
<path fill-rule="evenodd" clip-rule="evenodd" d="M80.9981 49.3256C81.2811 49.2786 81.5365 49.3385 81.764 49.505C81.1206 50.7333 80.4822 50.8531 79.8491 49.8637C80.2126 49.6424 80.5316 49.7019 80.8066 50.0431C80.9843 49.83 81.0482 49.5907 80.9981 49.3256Z" fill="#F8F6ED"/>
<path fill-rule="evenodd" clip-rule="evenodd" d="M2.10459 51.1193C2.80813 51.1692 2.93579 51.4085 2.48757 51.8368C2.18213 51.6729 2.05447 51.4336 2.10459 51.1193Z" fill="#FAF8F2"/>
<path fill-rule="evenodd" clip-rule="evenodd" d="M79.0831 51.1193C79.7867 51.1692 79.9142 51.4085 79.4661 51.8368C79.1605 51.6729 79.033 51.4336 79.0831 51.1193Z" fill="#F9F7F0"/>
<path fill-rule="evenodd" clip-rule="evenodd" d="M58.0194 71.5677C58.4744 72.2838 58.2189 72.5826 57.2534 72.4646C57.5908 72.2106 57.8459 71.9114 58.0194 71.5677Z" fill="#FAF9F2"/>
<path d="M40.7864 10.2808C40.4205 10.6138 40.4623 10.8586 40.9851 11.5148C41.5601 12.2297 41.7169 12.6606 41.6438 13.2874C41.5287 14.1689 41.1419 14.6586 38.8522 16.7936C36.6357 18.8601 36.1129 19.4771 35.5797 20.7307C35.2869 21.4162 35.266 23.3554 35.5483 24.3348C35.9874 25.8822 37.1584 27.4687 38.3399 28.1249C38.9463 28.4579 40.8805 28.9182 41.1837 28.8105C41.2883 28.7713 41.3615 28.6342 41.3615 28.4775C41.3615 28.2816 41.2046 28.076 40.7446 27.6646C40.1591 27.1456 40.1277 27.0868 39.9082 26.2445C39.5841 25.0203 39.5213 23.7765 39.7304 22.9245C40.0336 21.7492 40.41 21.1518 41.6647 19.908C43.1389 18.4389 43.5675 17.675 43.7244 16.206C43.8185 15.256 43.6303 14.306 42.9193 12.3374C42.2188 10.3787 41.9888 10.0359 41.3928 10.0359C41.1524 10.0359 40.9537 10.1143 40.7864 10.2808ZM42.5638 15.9807C42.4279 16.9111 41.9783 17.6065 40.7028 18.8307C40.0545 19.4575 39.3227 20.2116 39.0822 20.4956C38.5803 21.093 38.068 22.0626 37.9635 22.5915C37.838 23.1987 37.7021 23.0126 37.7648 22.3466C37.9426 20.6327 38.8836 19.1147 40.9432 17.2147C41.6856 16.539 42.3443 15.873 42.4174 15.7457C42.6056 15.4127 42.6475 15.4714 42.5638 15.9807Z" fill="#F1EDD3"/>
<path d="M47.1936 14.2889C46.8277 14.4652 46.8172 14.759 47.1622 15.6013C47.4341 16.2477 47.4863 16.5121 47.4863 17.2172C47.4863 18.7744 47.1518 19.3621 45.6148 20.5275C43.712 21.977 43.0742 22.7213 42.5619 24.1218C42.2796 24.8759 42.2482 25.9141 42.426 28.0981C42.5096 29.097 42.5514 29.2733 42.7605 29.4496C42.886 29.5573 42.9905 29.763 42.9905 29.9001C42.9905 30.2625 43.576 30.9187 43.8793 30.9187C44.1197 30.9187 44.1302 30.8991 44.0674 30.2527C44.0256 29.7336 44.057 29.4692 44.2347 28.9795C44.5693 28.0589 44.883 27.6573 46.5976 25.9239C47.4654 25.0522 48.3855 24.0435 48.6469 23.6615C49.3056 22.7311 49.6924 21.6146 49.7551 20.4394C49.8283 19.1564 49.6715 18.3043 49.0024 16.4631C48.6887 15.6013 48.4273 14.7982 48.4273 14.6807C48.4273 14.524 48.3228 14.426 48.0509 14.3183C47.6118 14.1518 47.5177 14.142 47.1936 14.2889ZM48.4273 19.9791C48.4273 21.3502 47.6327 22.4177 45.3953 24.112C44.9039 24.4744 44.4229 24.8465 44.3184 24.9347C44.1406 25.0816 44.1302 25.0718 44.1929 24.7976C44.2347 24.6311 44.402 24.2197 44.5798 23.8672C44.8411 23.3481 45.1653 22.9857 46.3885 21.8497C47.4759 20.8311 47.9255 20.3414 48.0718 20.0085C48.1764 19.7636 48.3019 19.5579 48.3541 19.5579C48.3959 19.5579 48.4273 19.744 48.4273 19.9791Z" fill="#F1EDD3"/>
<path d="M39.1125 32.7586C38.6002 32.8076 35.7773 32.8664 32.8393 32.8761C28.3331 32.8859 27.3085 32.9153 26.2107 33.072C24.9665 33.2385 24.9037 33.2385 24.5692 33.072L24.2241 32.8957L23.7746 33.1993C22.384 34.1297 22.0808 35.354 22.3213 39.056C22.5095 41.9353 22.7499 42.9637 23.4505 43.9137C23.6909 44.2467 23.9105 44.7363 24.0673 45.3142C25.0292 48.6734 26.4511 51.3667 28.3749 53.4821C28.7931 53.9522 28.8036 53.9816 28.6049 54.0404C28.4795 54.0796 28.1135 54.0796 27.7894 54.0404C27.0053 53.962 25.8656 54.1383 25.186 54.4419C23.8373 55.0491 23.1368 56.5574 23.6805 57.6641C24.1719 58.6728 25.6147 59.378 27.9776 59.7697C30.581 60.2006 36.1118 60.3867 45.1243 60.3377C51.0002 60.2986 51.2721 60.2888 52.0457 60.0929C52.9345 59.8578 53.7813 59.4857 54.325 59.0841C54.5237 58.9372 54.806 58.7805 54.9523 58.7414C55.4437 58.5945 55.8724 58.1929 56.2488 57.5074C56.6879 56.7141 56.7088 56.4692 56.4056 55.5192C56.092 54.5203 55.5901 54.0893 53.9591 53.4234C53.2795 53.1394 52.6103 52.8847 52.4744 52.8553C52.2444 52.7966 52.2653 52.7672 52.8508 52.1306C53.1854 51.7584 53.614 51.2688 53.8022 51.0239L54.1368 50.593L54.67 50.7791C55.4542 51.0631 57.0538 51.1218 58.2248 50.9162C62.4488 50.1621 66.1291 47.1848 67.4569 43.4142C67.7183 42.6699 67.7496 42.4348 67.7496 41.2596C67.7496 40.2508 67.7078 39.8003 67.5614 39.3596C66.9446 37.4302 65.5854 36.1962 63.6407 35.7751C62.7625 35.5792 61.006 35.6282 60.0441 35.8632C59.1135 36.0885 58.183 36.5194 57.5766 37.0091L57.1584 37.3421L57.0852 36.8916C57.0434 36.5978 57.0538 36.3627 57.1375 36.2452C57.2839 36.0297 57.2839 35.7457 57.1479 35.6184C57.0852 35.5596 57.0852 35.3148 57.1689 34.923C57.3048 34.2473 57.1793 33.9535 56.8029 34.0514C56.667 34.0808 56.5206 34.0024 56.3429 33.8163C56.207 33.6596 55.9456 33.4931 55.7574 33.4344C55.5692 33.3854 54.1995 33.3169 52.7044 33.2875C50.582 33.2483 49.4006 33.1797 47.3199 32.9447C45.0302 32.6901 44.3297 32.6411 42.3537 32.6607C41.0886 32.6607 39.6353 32.7097 39.1125 32.7586ZM55.3392 34.9622C55.5901 35.0601 55.7888 35.1679 55.7888 35.2071C55.7888 35.256 55.5901 35.2854 55.3392 35.2854C54.8478 35.2854 53.2272 35.4617 52.9345 35.54C52.7881 35.589 52.7567 35.6771 52.7776 36.0003L52.809 36.4117L54.1054 36.4313C54.8269 36.4509 55.4228 36.4802 55.4437 36.4998C55.4646 36.5096 55.4437 36.8328 55.4019 37.205L55.3183 37.8807L54.4296 37.9591C53.9382 37.9983 52.6731 38.057 51.6066 38.106L49.6724 38.1745V38.5173V38.8601L51.5021 38.8895C53.1749 38.9091 54.44 38.7916 55.1301 38.5467C55.2242 38.5075 55.266 38.6055 55.266 38.8797V39.2714L54.4086 39.389C52.8299 39.6142 52.3908 39.7318 52.3594 39.957C52.328 40.1431 52.3908 40.1725 52.9135 40.2312C53.2377 40.2704 53.8754 40.2704 54.3355 40.241L55.1614 40.1725V40.6132V41.0637H54.7223C54.4714 41.0637 53.8545 41.1225 53.3318 41.2008C51.5753 41.4554 51.0316 41.4848 50.8852 41.3183C50.8016 41.2302 50.6761 41.1616 50.6029 41.1616C50.4775 41.1616 50.4252 41.2694 50.2997 41.8668C50.2056 42.3565 51.0734 42.5915 53.3631 42.6895L55.0255 42.758L54.8478 43.4827C54.7432 43.8843 54.6491 44.2173 54.6282 44.2369C54.6073 44.2467 54.3459 44.3054 54.0532 44.374C53.635 44.4621 53.3213 44.4523 52.5476 44.3348C52.0144 44.2564 51.293 44.1977 50.9375 44.2173C50.2997 44.2467 50.2997 44.2467 50.2683 44.5601C50.2474 44.7951 50.2893 44.893 50.4565 44.9812C50.582 45.0399 50.7702 45.1771 50.8748 45.275C51.2511 45.6276 53.0285 45.657 53.8754 45.324C54.0845 45.2358 54.2623 45.1869 54.2832 45.2064C54.3564 45.2652 53.6663 46.7049 53.5199 46.8224C53.4049 46.891 52.9867 46.9399 52.3908 46.9399C50.5088 46.9399 49.5678 47.2729 50.0906 47.7626C50.2265 47.8899 50.2056 47.9095 49.9338 47.9683C49.756 48.0074 49.6201 48.0662 49.6201 48.1054C49.6201 48.2033 51.3557 48.4482 52.098 48.4482L52.6312 48.458L52.464 48.7322C52.3594 48.8889 52.0457 49.31 51.753 49.6626L51.2198 50.3188L49.9756 50.3286C48.6582 50.3481 47.3199 50.4853 46.5776 50.6909C45.9817 50.8476 45.9398 51.1414 46.4835 51.2785C46.6822 51.3275 46.9645 51.445 47.1108 51.5332C47.5291 51.8074 47.7382 51.8662 48.6269 51.9249L49.4528 51.9837L48.836 52.444C48.4909 52.7084 47.9054 53.061 47.5291 53.2471L46.8495 53.5703L46.1176 53.394C44.6329 53.0218 42.8973 53.0316 42.7719 53.4136C42.6673 53.7074 42.8137 53.9816 43.1065 54.06C43.2633 54.0893 43.5351 54.2167 43.7233 54.3342L44.0579 54.5497L43.2633 54.7553C42.6778 54.9022 41.7473 55.01 39.8235 55.1275L37.1887 55.294L36.5823 55.0687C32.1806 53.4332 28.8245 50.3873 26.6916 46.0977C25.1442 42.9833 24.4123 39.2127 24.7051 35.7849L24.7678 34.9622L25.4056 35.0308C27.6535 35.2658 29.5668 35.2854 38.5375 35.1777C45.8457 35.0993 48.3968 35.0993 49.7456 35.1875C51.5648 35.3148 53.0808 35.2266 54.1891 34.9426C54.8582 34.7663 54.8373 34.7663 55.3392 34.9622ZM62.8461 37.44C64.7594 37.9003 65.6377 38.8601 65.6377 40.5152C65.6481 42.3565 64.5399 44.5601 62.8565 46.0389C61.6646 47.077 59.8977 48.0858 58.6117 48.458C57.8171 48.6832 55.4124 48.7909 55.496 48.5951C55.5274 48.5167 55.6633 48.2131 55.7888 47.9193L56.0292 47.3806L56.8447 47.4198C59.835 47.5471 62.7938 45.8039 63.7557 43.3652C63.9334 42.9147 63.9857 42.5523 63.9857 41.8472C63.9962 41.0441 63.9544 40.8384 63.7243 40.3683C63.212 39.3596 61.9888 38.8111 60.2532 38.8111C59.1449 38.8209 58.5594 38.9189 57.8694 39.2519L57.378 39.4771L57.3257 39.0168C57.2734 38.6251 57.3048 38.5271 57.5452 38.2921C57.7021 38.1354 57.9844 37.9199 58.183 37.8122C59.1554 37.2441 61.3196 37.0777 62.8461 37.44ZM60.9641 40.3879C61.4869 40.525 62.0097 41.0441 62.1038 41.5044C62.1979 41.9549 61.9574 42.7384 61.5496 43.3163C61.1837 43.8353 60.4727 44.3642 59.5945 44.7755C58.9567 45.0693 56.7716 45.7353 56.6879 45.657C56.667 45.6374 56.7297 45.2456 56.8447 44.7853C56.9493 44.325 57.1375 43.2869 57.263 42.4838C57.4302 41.3673 57.5348 40.9756 57.6812 40.8384C57.7962 40.7405 57.8798 40.623 57.8798 40.5838C57.8798 40.3194 60.1591 40.1823 60.9641 40.3879ZM50.3729 54.9904C50.3624 55.0785 50.4252 55.196 50.5297 55.245C50.7597 55.3625 52.3385 55.5584 53.269 55.5878C53.8022 55.6074 53.9591 55.6465 54.0741 55.8032C54.21 55.9991 54.21 56.0089 53.3527 55.9306C52.5581 55.8718 50.8016 55.9697 50.4252 56.1069C50.0279 56.244 50.1115 56.7826 50.5402 56.9393C50.697 56.9981 51.2616 57.0666 51.7948 57.096C52.3176 57.1254 52.7567 57.1842 52.7567 57.2135C52.7567 57.2429 52.0144 57.429 51.1048 57.6151L49.4633 57.9579L43.7129 57.9677C40.5554 57.9775 36.6973 58.0362 35.1395 58.1048C31.9088 58.2419 29.7968 58.1831 28.0926 57.8991C26.6184 57.6543 25.9284 57.3702 25.9702 57.0275C26.0225 56.577 26.5766 56.1656 27.3817 55.9991C28.6467 55.7249 29.5877 55.7151 30.6228 55.9404C31.1247 56.0579 31.7102 56.146 31.9297 56.146C32.1388 56.146 32.6511 56.2342 33.0484 56.3517C33.4876 56.4692 34.3344 56.5867 35.1918 56.6357C36.2059 56.6945 36.9692 56.812 37.9102 57.0471C39.1125 57.3311 39.3425 57.3605 40.7854 57.3605C41.7786 57.3507 42.7196 57.2919 43.3469 57.1842C45.1766 56.8806 47.6127 55.9893 49.1705 55.0687C49.7456 54.7259 50.4252 54.677 50.3729 54.9904Z" fill="#F1EDD3"/>
<path d="M26.4725 37.4952C26.1275 37.6617 26.0125 37.9653 26.2321 38.171C26.2948 38.2298 26.2321 38.455 26.0439 38.7978C25.772 39.3169 25.7616 39.3952 25.772 40.8545C25.772 42.157 25.8139 42.539 26.0648 43.5477C26.4412 45.0658 26.7548 45.8591 27.4763 47.1714C27.9572 48.0529 28.2186 48.3956 28.9086 49.0518C29.4628 49.5807 29.9228 49.9333 30.2678 50.0704C30.5501 50.1879 30.937 50.4131 31.1252 50.5601C31.3134 50.7168 31.5852 50.8441 31.7316 50.8441C32.0452 50.8441 32.5053 50.4425 32.5053 50.1585C32.5053 50.041 32.223 49.4534 31.8884 48.8559C30.5292 46.4467 29.9123 44.2921 29.6823 41.1973C29.515 38.8859 29.4209 38.4648 28.9609 38.0143C28.6786 37.7303 28.459 37.6128 28.1349 37.5638C27.8945 37.5246 27.6958 37.4658 27.6958 37.4169C27.6958 37.27 26.828 37.3287 26.4725 37.4952ZM28.1558 38.9545C28.3963 39.3854 28.4172 39.7968 28.2813 42.0787C28.2186 43.2441 28.2395 43.7142 28.365 44.3802C28.4486 44.8307 28.5113 45.2225 28.4904 45.2421C28.4277 45.3008 27.8004 43.8122 27.6331 43.1854C27.4867 42.6859 27.4658 42.2746 27.5285 40.9524C27.6226 38.4256 27.7167 38.1514 28.1558 38.9545Z" fill="#F1EDD3"/>
<path d="M32.9953 51.4575C32.8908 51.4771 32.8071 51.5554 32.8071 51.6338C32.8071 51.7219 33.0581 51.8003 33.539 51.8786C34.3022 51.9961 34.9296 52.3095 34.9818 52.5936C35.0446 52.8678 34.5323 52.7992 34.135 52.4662C33.7377 52.143 33.5285 52.1039 33.3299 52.3193C33.2044 52.4564 33.2358 52.6425 33.4554 53.1714C33.6749 53.7198 34.6995 54.0528 35.3582 53.7982C35.7869 53.6317 35.9437 53.3868 35.9437 52.8874C35.9437 51.9472 35.17 51.3791 33.9049 51.3987C33.5076 51.4085 33.0894 51.4281 32.9953 51.4575Z" fill="#F1EDD3"/>
</g>
<defs>
<clipPath id="clip0_173_2996">
<rect width="90" height="80" fill="white"/>
</clipPath>
</defs>
</svg>
