<svg width="230" height="80" viewBox="0 0 230 80" fill="none" xmlns="http://www.w3.org/2000/svg">
<path d="M121.875 39H113.625L104.648 24.5625L101.578 26.7656V39H94.3125V4.73438H101.578V20.4141C102.062 19.7422 102.539 19.0703 103.008 18.3984C103.477 17.7266 103.953 17.0547 104.438 16.3828L113.719 4.73438H121.781L109.828 19.8984L121.875 39ZM145.922 39H126.188V4.73438H145.922V10.6875H133.453V18.2109H145.055V24.1641H133.453V33H145.922V39ZM153.094 39V4.73438H160.359V33H174.258V39H153.094ZM208.664 21.5391C208.664 25.3984 207.922 28.625 206.438 31.2188C204.969 33.7969 202.836 35.7422 200.039 37.0547C197.242 38.3516 193.875 39 189.938 39H180.234V4.73438H190.992C194.586 4.73438 197.703 5.375 200.344 6.65625C202.984 7.92188 205.031 9.80469 206.484 12.3047C207.938 14.7891 208.664 17.8672 208.664 21.5391ZM201.117 21.7266C201.117 19.1953 200.742 17.1172 199.992 15.4922C199.258 13.8516 198.164 12.6406 196.711 11.8594C195.273 11.0781 193.492 10.6875 191.367 10.6875H187.5V33H190.617C194.164 33 196.797 32.0547 198.516 30.1641C200.25 28.2734 201.117 25.4609 201.117 21.7266ZM215.766 39V4.73438H223.031V39H215.766Z" fill="#A98E68"/>
<path d="M108.867 48.0006C107.477 48.0006 106.242 48.274 105.164 48.8209C104.102 49.3522 103.203 50.1256 102.469 51.1412C101.75 52.1569 101.203 53.3834 100.828 54.8209C100.453 56.2584 100.266 57.8756 100.266 59.6725C100.266 62.0944 100.562 64.1647 101.156 65.8834C101.766 67.5865 102.703 68.8912 103.969 69.7975C105.234 70.6881 106.867 71.1334 108.867 71.1334C110.258 71.1334 111.648 70.9772 113.039 70.6647C114.445 70.3522 115.969 69.9069 117.609 69.3287V75.4225C116.094 76.0475 114.602 76.4928 113.133 76.7584C111.664 77.0397 110.016 77.1803 108.188 77.1803C104.656 77.1803 101.75 76.4537 99.4688 75.0006C97.2031 73.5319 95.5234 71.485 94.4297 68.86C93.3359 66.2194 92.7891 63.1412 92.7891 59.6256C92.7891 57.0319 93.1406 54.6569 93.8438 52.5006C94.5469 50.3444 95.5781 48.4772 96.9375 46.899C98.2969 45.3209 99.9766 44.1022 101.977 43.2428C103.977 42.3834 106.273 41.9537 108.867 41.9537C110.57 41.9537 112.273 42.1725 113.977 42.61C115.695 43.0319 117.336 43.6178 118.898 44.3678L116.555 50.274C115.273 49.6647 113.984 49.1334 112.688 48.6803C111.391 48.2272 110.117 48.0006 108.867 48.0006ZM160.823 59.5319C160.823 62.1725 160.495 64.5787 159.839 66.7506C159.183 68.9069 158.183 70.7662 156.839 72.3287C155.511 73.8912 153.823 75.0944 151.777 75.9381C149.73 76.7662 147.308 77.1803 144.511 77.1803C141.714 77.1803 139.292 76.7662 137.245 75.9381C135.198 75.0944 133.503 73.8912 132.159 72.3287C130.831 70.7662 129.839 68.899 129.183 66.7272C128.527 64.5553 128.198 62.1412 128.198 59.485C128.198 55.9381 128.777 52.8522 129.933 50.2272C131.105 47.5865 132.902 45.5397 135.323 44.0865C137.745 42.6334 140.823 41.9069 144.558 41.9069C148.277 41.9069 151.331 42.6334 153.722 44.0865C156.128 45.5397 157.909 47.5865 159.066 50.2272C160.237 52.8678 160.823 55.9694 160.823 59.5319ZM135.816 59.5319C135.816 61.9225 136.112 63.985 136.706 65.7194C137.316 67.4381 138.261 68.7662 139.542 69.7037C140.823 70.6256 142.48 71.0865 144.511 71.0865C146.573 71.0865 148.245 70.6256 149.527 69.7037C150.808 68.7662 151.737 67.4381 152.316 65.7194C152.909 63.985 153.206 61.9225 153.206 59.5319C153.206 55.9381 152.534 53.11 151.191 51.0475C149.847 48.985 147.636 47.9537 144.558 47.9537C142.511 47.9537 140.839 48.4225 139.542 49.36C138.261 50.2819 137.316 51.61 136.706 53.3444C136.112 55.0631 135.816 57.1256 135.816 59.5319ZM179.873 76.7115H172.725V42.4459H192.366V48.399H179.873V57.235H191.498V63.1647H179.873V76.7115ZM211.017 76.7115H203.869V42.4459H223.509V48.399H211.017V57.235H222.642V63.1647H211.017V76.7115Z" fill="#A98E68"/>
<g clip-path="url(#clip0_177_5668)">
<path fill-rule="evenodd" clip-rule="evenodd" d="M37.7214 -0.181152C40.1468 -0.181152 42.5726 -0.181152 44.998 -0.181152C44.6904 0.150032 44.6265 0.508774 44.8065 0.895081C46.7566 -0.020032 48.6715 -0.020032 50.5511 0.895081C50.8288 0.694719 51.1478 0.575138 51.5086 0.536336C53.4411 1.01879 55.356 1.5569 57.2533 2.15069C56.3154 3.01337 55.4215 3.91022 54.5724 4.84127C53.3028 5.45709 52.9199 5.21792 53.4235 4.12378C54.086 3.93522 54.5969 3.57648 54.9554 3.04755C54.4951 2.72275 53.9842 2.72275 53.4235 3.04755C53.7728 2.60335 53.8367 2.12503 53.615 1.61257C52.7805 2.27559 52.0781 3.05287 51.5086 3.94441C50.9981 4.18358 50.4872 4.18358 49.9767 3.94441C50.5079 3.12166 50.9548 2.34438 51.3171 1.61257C50.2957 2.56922 49.2747 3.52587 48.2533 4.48252C47.9978 4.12378 47.9978 3.76504 48.2533 3.40629C48.917 2.81545 49.619 2.27734 50.3597 1.79194C50.1682 1.61257 49.9767 1.4332 49.7852 1.25383C48.7638 1.97131 47.8703 2.80838 47.1043 3.76504C46.9423 3.24268 46.6233 3.0633 46.1469 3.22692C45.7819 3.92834 45.271 4.52622 44.615 5.02064C44.7425 5.14021 44.8704 5.25982 44.998 5.37939C40.9204 5.35991 36.899 5.77842 32.9341 6.63499C32.279 6.65677 31.7683 6.41763 31.4022 5.9175C30.3357 6.98606 29.1229 7.82312 27.7639 8.42871C27.6363 8.36891 27.5086 8.30914 27.3809 8.24934C27.8356 7.8836 28.2186 7.46509 28.5299 6.99374C28.3378 6.62746 28.0824 6.56766 27.7639 6.81436C26.8703 7.71122 25.9767 8.60809 25.0831 9.50495C24.9554 9.38538 24.8277 9.26577 24.7001 9.1462C25.4487 8.26455 26.2785 7.42746 27.1894 6.63499C27.4528 6.33662 27.389 6.09745 26.998 5.9175C25.2706 7.49167 23.5472 9.04626 21.8277 10.5812C21.8846 10.1058 21.8207 9.68733 21.6363 9.32557C22.2036 8.9739 22.7142 8.55535 23.1682 8.06997C23.3926 8.14505 23.5841 8.26462 23.7426 8.42871C23.9476 6.26319 23.437 6.26319 22.2107 8.42871C22.1469 8.18954 22.0831 7.9504 22.0192 7.71122C22.8069 6.94125 23.3814 6.10416 23.7426 5.20001C21.337 6.74739 19.1668 8.54111 17.232 10.5812C17.1044 10.9399 16.9767 11.2987 16.849 11.6574C16.5071 11.2229 16.188 11.2229 15.8916 11.6574C16.36 12.057 16.8706 12.1168 17.4235 11.8368C17.8559 10.7739 18.6219 9.99664 19.7214 9.50495C20.0009 10.0193 20.3838 10.4378 20.8703 10.7606C20.7426 10.8801 20.615 10.9997 20.4873 11.1193C21.4147 11.1678 22.3083 10.9884 23.1682 10.5812C16.5518 14.6914 11.6369 20.1921 8.42349 27.0834C7.44452 27.3414 6.99769 27.9393 7.08306 28.8771C6.68017 28.8235 6.29719 28.8833 5.93412 29.0565C5.31611 29.8195 4.55015 30.3576 3.63625 30.6709C4.12045 29.4531 4.75872 28.5563 5.55115 27.9803C5.4873 27.8009 5.4235 27.6215 5.35966 27.4422C4.74727 28.0004 4.1728 28.5983 3.63625 29.2359C3.50859 29.0565 3.38093 28.8771 3.25327 28.6978C3.93586 27.8924 4.70181 27.1749 5.55115 26.5453C5.16817 26.3061 4.78519 26.3061 4.40221 26.5453C3.54933 27.5982 2.52806 28.3157 1.33838 28.6978C2.38936 25.9506 3.60213 23.26 4.97668 20.626C11.8658 9.53393 21.8871 2.83739 35.0405 0.536336C35.3235 0.489337 35.5788 0.549129 35.8065 0.715709C35.5183 0.95634 35.3906 1.2553 35.4235 1.61257C35.9341 1.13425 36.4448 0.655917 36.9554 0.177592C37.3352 0.239145 37.5905 0.119564 37.7214 -0.181152Z" fill="#A98E68"/>
<path fill-rule="evenodd" clip-rule="evenodd" d="M35.0405 0.536323C35.5839 0.195105 36.2221 0.0755231 36.9554 0.177578C36.4448 0.655903 35.9341 1.13423 35.4235 1.61256C35.3906 1.25528 35.5183 0.956326 35.8065 0.715695C35.5788 0.549116 35.3235 0.489324 35.0405 0.536323Z" fill="#A98E68"/>
<path fill-rule="evenodd" clip-rule="evenodd" d="M45.7643 1.61255C46.6964 1.91893 46.6325 2.27768 45.5728 2.68878C45.3928 2.30248 45.4567 1.94373 45.7643 1.61255Z" fill="#A98E68"/>
<path fill-rule="evenodd" clip-rule="evenodd" d="M58.7852 3.04755C59.8112 3.10946 60.705 3.4682 61.466 4.12378C60.5679 4.84615 59.802 5.68324 59.1681 6.63499C58.6948 6.90254 58.1839 7.02215 57.6362 6.99373C57.9606 6.46771 58.4711 6.16877 59.1681 6.09687C58.9284 5.82767 58.7369 5.52869 58.5937 5.20001C58.3367 5.46993 58.0177 5.58954 57.6362 5.55876C57.8442 4.64812 58.2272 3.81103 58.7852 3.04755Z" fill="#A98E68"/>
<path fill-rule="evenodd" clip-rule="evenodd" d="M53.4234 3.04755C53.4234 3.40629 53.4234 3.76504 53.4234 4.12378C52.06 4.04575 52.06 3.68701 53.4234 3.04755Z" fill="#A98E68"/>
<path fill-rule="evenodd" clip-rule="evenodd" d="M49.211 4.12378C49.5836 4.29838 49.9666 4.47775 50.3599 4.6619C49.751 5.03707 49.1765 5.45562 48.6365 5.9175C48.5668 5.26093 48.7583 4.66301 49.211 4.12378Z" fill="#A98E68"/>
<path fill-rule="evenodd" clip-rule="evenodd" d="M46.9133 4.12378C47.7968 4.44844 47.7968 4.92676 46.9133 5.55876C46.482 5.08938 46.482 4.61106 46.9133 4.12378Z" fill="#A98E68"/>
<path fill-rule="evenodd" clip-rule="evenodd" d="M51.126 4.48254C51.7866 4.60541 51.9781 4.96416 51.7005 5.55878C51.1493 6.10188 50.5749 6.22149 49.9771 5.91752C50.5171 5.53384 50.9 5.05553 51.126 4.48254Z" fill="#A98E68"/>
<path fill-rule="evenodd" clip-rule="evenodd" d="M58.7855 3.04757C57.5205 3.87333 56.3716 4.82999 55.3387 5.91752C55.0293 5.80717 54.7738 5.6278 54.5728 5.37941C55.5942 4.90109 56.3601 4.18361 56.8706 3.22694C57.5385 2.70518 58.177 2.64539 58.7855 3.04757Z" fill="#A98E68"/>
<path fill-rule="evenodd" clip-rule="evenodd" d="M63.3811 5.20001C71.159 8.83854 76.9673 14.3393 80.8066 21.7023C81.0621 22.1806 81.0621 22.6589 80.8066 23.1372C79.938 23.344 79.5551 23.8224 79.6577 24.5722C80.4064 24.2302 81.0449 23.7519 81.5726 23.1372C82.383 24.0328 82.5745 24.9895 82.1471 26.0072C82.8249 26.4936 83.3354 27.1513 83.679 27.9803C83.3695 28.0906 83.1141 28.27 82.913 28.5184C83.9298 29.2157 84.4407 30.1724 84.4449 31.3884C84.1654 31.8233 83.7824 32.182 83.296 32.4646C83.4235 32.5842 83.5515 32.7038 83.679 32.8233C84.0689 32.5749 84.4518 32.3357 84.8279 32.1058C86.9328 44.1894 84.0604 55.0712 76.2109 64.7516C73.3432 68.3778 69.8328 71.1878 65.679 73.1821C66.062 72.8233 66.4449 72.4646 66.8279 72.1058C65.44 72.6192 64.2911 73.5161 63.3811 74.7964C58.0535 77.4762 52.4363 79.1502 46.53 79.8188C43.5938 79.8188 40.6578 79.8188 37.7215 79.8188C18.2064 76.3351 5.95108 66.0513 0.955577 48.9668C1.03574 48.7566 1.1634 48.5772 1.33856 48.4287C0.534913 46.7645 0.0242756 45.0307 -0.193359 43.2269C-0.193359 41.0745 -0.193359 38.922 -0.193359 36.7695C0.0767333 35.7908 0.332053 34.7744 0.572598 33.7202C0.44494 33.6006 0.317279 33.481 0.189619 33.3614C0.653062 32.9887 1.03604 32.5701 1.33856 32.1058C1.57501 32.0661 1.7665 31.9466 1.91302 31.7471C2.49565 32.6603 3.07012 32.6603 3.63643 31.7471C3.91941 31.7001 4.17474 31.7599 4.40239 31.9265C3.25633 33.3585 1.97973 34.6739 0.572598 35.8727C1.11174 35.9857 1.62238 35.8662 2.10451 35.5139C2.98358 34.331 4.00485 33.2548 5.16834 32.2852C5.69559 31.84 6.20622 31.7802 6.70026 32.1058C4.50464 42.5582 6.80251 52.2443 13.5939 61.1641C14.4884 62.386 15.5735 63.4623 16.8492 64.3928C18.3902 65.6312 20.1136 66.9464 22.0194 68.339C21.0659 68.6902 21.0659 69.1089 22.0194 69.5946C21.8907 69.9641 21.6354 70.1435 21.2535 70.1328C20.946 70.4639 20.8821 70.8226 21.062 71.209C21.4449 70.7308 21.8279 70.7308 22.2109 71.209C22.368 70.7064 22.5594 70.2282 22.7854 69.774C23.207 69.3801 23.7176 69.3202 24.3173 69.5946C33.6764 74.6511 43.7615 75.548 54.5726 72.2852C54.7001 72.5245 54.828 72.7634 54.9556 73.0027C55.2949 72.7067 55.4224 72.348 55.3386 71.9265C57.3186 71.3593 59.2335 70.5823 61.0832 69.5946C70.899 63.7668 77.0266 55.6951 79.4662 45.3794C79.1085 44.9962 78.9806 44.518 79.0832 43.9444C80.6152 43.8249 80.6152 43.7051 79.0832 43.5857C79.0426 42.6605 79.2981 41.8235 79.8492 41.0745C79.6761 35.5811 78.2717 30.1401 75.6364 24.7516C75.9459 24.6412 76.2013 24.4619 76.4024 24.2135C76.0589 24.1528 75.6759 24.0332 75.2534 23.8547C76.3093 22.8447 76.1178 22.6055 74.679 23.1372C74.5358 22.8086 74.3443 22.5096 74.1045 22.2404C74.414 22.13 74.6694 21.9506 74.8705 21.7023C74.3002 21.6904 73.7897 21.511 73.3386 21.1641C73.8491 20.504 73.7851 20.3246 73.1471 20.626C72.7001 20.0281 72.2536 19.4302 71.8066 18.8323C72.3394 17.9585 72.1479 17.7193 71.2322 18.1148C69.2966 16.3017 67.6372 14.7471 66.2534 13.4511C66.2607 12.8745 66.3243 12.2766 66.4449 11.6574C65.9245 11.8391 65.5415 12.1979 65.296 12.7336C64.9046 12.6061 64.6492 12.3669 64.53 12.0162C63.64 11.7185 62.874 11.2402 62.2322 10.5812C63.2654 9.96227 64.0314 9.12518 64.53 8.06997C63.6366 8.54828 62.7427 9.02663 61.8492 9.50495C62.4489 8.46017 63.2149 7.50351 64.1471 6.63499C63.9548 6.26871 63.6997 6.20891 63.3811 6.45562C62.6722 7.08428 61.9063 7.6224 61.0832 8.06997C61.5938 7.23291 62.1046 6.39582 62.6152 5.55876C62.9951 5.62032 63.2501 5.50071 63.3811 5.20001Z" fill="#A98E68"/>
<path fill-rule="evenodd" clip-rule="evenodd" d="M57.6366 5.55878C57.509 5.91752 57.2536 6.1567 56.8706 6.27627C56.8706 5.79795 57.1261 5.55878 57.6366 5.55878Z" fill="#A98E68"/>
<path fill-rule="evenodd" clip-rule="evenodd" d="M52.2746 5.55875C52.6775 5.50512 53.0604 5.56492 53.4235 5.73812C52.9846 5.96948 52.6016 6.26846 52.2746 6.63499C52.0498 6.37188 52.0498 6.01314 52.2746 5.55875Z" fill="#A98E68"/>
<path fill-rule="evenodd" clip-rule="evenodd" d="M53.8065 5.91748C55.2492 6.18055 55.3131 6.65886 53.998 7.35246C53.7107 7.12796 53.3913 6.94858 53.0405 6.81434C53.5215 6.66478 53.777 6.36584 53.8065 5.91748Z" fill="#A98E68"/>
<path fill-rule="evenodd" clip-rule="evenodd" d="M56.8702 6.27623C56.8702 6.75454 57.1257 6.99372 57.6362 6.99372C57.3869 8.18833 56.8764 8.3079 56.1043 7.35246C55.8799 7.42755 55.6884 7.54711 55.5298 7.7112C55.4092 7.20616 55.5367 6.72785 55.9128 6.27623C56.2077 5.88229 56.5267 5.88229 56.8702 6.27623Z" fill="#A98E68"/>
<path fill-rule="evenodd" clip-rule="evenodd" d="M63.3812 5.20002C63.2503 5.50072 62.9952 5.62033 62.6153 5.55877C61.6624 6.18847 60.7686 6.90596 59.9344 7.71123C60.2504 8.02897 60.6334 8.14854 61.0834 8.06998C60.3055 9.32401 59.2841 9.50338 58.0195 8.6081C59.4159 7.41861 60.6923 6.1032 61.8493 4.66191C62.5586 4.38474 63.0695 4.56411 63.3812 5.20002Z" fill="#A98E68"/>
<path fill-rule="evenodd" clip-rule="evenodd" d="M20.4876 8.06995C21.8881 8.23999 21.952 8.71834 20.6791 9.50492C20.4915 9.041 20.4276 8.56265 20.4876 8.06995Z" fill="#A98E68"/>
<path fill-rule="evenodd" clip-rule="evenodd" d="M23.1685 10.5812C23.3913 10.0678 23.7104 9.58944 24.1259 9.14618C24.4743 10.0233 24.1552 10.5016 23.1685 10.5812Z" fill="#A98E68"/>
<path fill-rule="evenodd" clip-rule="evenodd" d="M61.849 9.50492C61.7957 10.1639 61.5403 10.2835 61.083 9.86367C61.258 9.57757 61.5135 9.45797 61.849 9.50492Z" fill="#A98E68"/>
<path fill-rule="evenodd" clip-rule="evenodd" d="M72.1898 15.2449C72.6448 15.9609 72.3893 16.2599 71.4238 16.1417C71.7612 15.8876 72.0163 15.5887 72.1898 15.2449Z" fill="#A98E68"/>
<path fill-rule="evenodd" clip-rule="evenodd" d="M8.61508 17.3973C8.56165 18.0563 8.30636 18.1759 7.84912 17.7561C8.0241 17.47 8.27944 17.3504 8.61508 17.3973Z" fill="#A98E68"/>
<path fill-rule="evenodd" clip-rule="evenodd" d="M76.4026 17.756C77.3505 17.8445 77.3505 18.0837 76.4026 18.4735C76.0338 18.305 76.0338 18.0658 76.4026 17.756Z" fill="#A98E68"/>
<path fill-rule="evenodd" clip-rule="evenodd" d="M11.2961 18.4736C11.5041 18.4951 11.6317 18.6147 11.6791 18.8323C10.4269 19.7144 10.2992 19.5948 11.2961 18.4736Z" fill="#A98E68"/>
<path fill-rule="evenodd" clip-rule="evenodd" d="M7.84897 19.9086C7.79554 20.5676 7.54025 20.6872 7.08301 20.2673C7.25799 19.9812 7.51332 19.8616 7.84897 19.9086Z" fill="#A98E68"/>
<path fill-rule="evenodd" clip-rule="evenodd" d="M1.72168 30.6709C1.72168 30.1926 1.72168 29.7142 1.72168 29.2359C3.12547 29.5203 3.12547 29.9986 1.72168 30.6709Z" fill="#A98E68"/>
<path fill-rule="evenodd" clip-rule="evenodd" d="M7.08319 28.8771C7.4139 28.5317 7.66923 28.5317 7.84915 28.8771C7.20548 30.1062 6.24803 31.0629 4.97681 31.7471C4.78532 31.5677 4.59383 31.3884 4.40234 31.209C5.47005 30.5924 6.36365 29.8152 7.08319 28.8771Z" fill="#A98E68"/>
<path fill-rule="evenodd" clip-rule="evenodd" d="M1.72169 30.6709C1.59403 31.1492 1.46637 31.6276 1.33871 32.1059C1.00305 32.1528 0.747733 32.0332 0.572754 31.7471C0.718014 31.1326 1.10099 30.7738 1.72169 30.6709Z" fill="#A98E68"/>
<path fill-rule="evenodd" clip-rule="evenodd" d="M3.63649 30.6709C3.63649 31.0296 3.63649 31.3884 3.63649 31.7471C2.68497 31.4745 2.68497 31.1157 3.63649 30.6709Z" fill="#A98E68"/>
<path fill-rule="evenodd" clip-rule="evenodd" d="M81.7642 30.6709C83.0514 30.9232 83.1789 31.4015 82.1471 32.1059C82.1946 31.7075 82.0671 31.2292 81.7642 30.6709Z" fill="#A98E68"/>
<path fill-rule="evenodd" clip-rule="evenodd" d="M80.615 34.617C80.9505 34.5701 81.206 34.6897 81.381 34.9758C80.4971 35.4685 80.2416 35.3489 80.615 34.617Z" fill="#A98E68"/>
<path fill-rule="evenodd" clip-rule="evenodd" d="M3.25342 37.487C3.4053 37.1193 3.66061 37.0594 4.01938 37.3076C4.27471 37.6664 4.53 38.0251 4.78533 38.3838C4.17931 38.3146 3.66866 38.0158 3.25342 37.487Z" fill="#A98E68"/>
<path fill-rule="evenodd" clip-rule="evenodd" d="M3.25343 37.487C3.24935 38.2712 2.86637 38.57 2.10449 38.3839C2.439 38.009 2.82198 37.7101 3.25343 37.487Z" fill="#A98E68"/>
<path fill-rule="evenodd" clip-rule="evenodd" d="M2.87039 41.0745C3.6921 41.1448 3.75593 41.5035 3.06188 42.1507C2.87699 41.8106 2.81316 41.4519 2.87039 41.0745Z" fill="#A98E68"/>
<path fill-rule="evenodd" clip-rule="evenodd" d="M80.9981 49.3256C81.2811 49.2786 81.5365 49.3385 81.764 49.5049C81.1206 50.7333 80.4822 50.8531 79.8491 49.8637C80.2126 49.6423 80.5316 49.7019 80.8066 50.043C80.9843 49.83 81.0482 49.5907 80.9981 49.3256Z" fill="#A98E68"/>
<path fill-rule="evenodd" clip-rule="evenodd" d="M2.10435 51.1193C2.80789 51.1692 2.93555 51.4085 2.48733 51.8368C2.18188 51.6729 2.05422 51.4336 2.10435 51.1193Z" fill="#A98E68"/>
<path fill-rule="evenodd" clip-rule="evenodd" d="M79.0834 51.1193C79.7869 51.1692 79.9144 51.4085 79.4664 51.8368C79.1607 51.6729 79.0332 51.4336 79.0834 51.1193Z" fill="#A98E68"/>
<path fill-rule="evenodd" clip-rule="evenodd" d="M58.0194 71.5677C58.4744 72.2838 58.2189 72.5826 57.2534 72.4646C57.5908 72.2106 57.8459 71.9114 58.0194 71.5677Z" fill="#A98E68"/>
<path d="M40.7867 10.2807C40.4207 10.6137 40.4625 10.8585 40.9853 11.5147C41.5604 12.2297 41.7172 12.6606 41.644 13.2874C41.529 14.1688 41.1421 14.6585 38.8524 16.7935C36.6359 18.86 36.1131 19.477 35.5799 20.7306C35.2872 21.4162 35.2663 23.3553 35.5485 24.3347C35.9877 25.8821 37.1587 27.4687 38.3401 28.1249C38.9465 28.4579 40.8808 28.9182 41.184 28.8104C41.2885 28.7713 41.3617 28.6342 41.3617 28.4775C41.3617 28.2816 41.2049 28.0759 40.7448 27.6646C40.1593 27.1455 40.128 27.0867 39.9084 26.2445C39.5843 25.0203 39.5216 23.7765 39.7307 22.9244C40.0339 21.7492 40.4103 21.1518 41.6649 19.9079C43.1391 18.4389 43.5678 17.675 43.7246 16.2059C43.8187 15.2559 43.6305 14.3059 42.9195 12.3374C42.219 10.3787 41.989 10.0359 41.3931 10.0359C41.1526 10.0359 40.9539 10.1142 40.7867 10.2807ZM42.5641 15.9807C42.4281 16.9111 41.9786 17.6064 40.703 18.8306C40.0548 19.4574 39.3229 20.2116 39.0824 20.4956C38.5806 21.093 38.0683 22.0626 37.9637 22.5914C37.8383 23.1986 37.7023 23.0126 37.7651 22.3466C37.9428 20.6327 38.8838 19.1147 40.9435 17.2147C41.6858 16.5389 42.3445 15.8729 42.4177 15.7456C42.6059 15.4126 42.6477 15.4714 42.5641 15.9807Z" fill="#A98E68"/>
<path d="M47.1938 14.2889C46.8279 14.4652 46.8174 14.759 47.1625 15.6013C47.4343 16.2476 47.4866 16.5121 47.4866 17.2172C47.4866 18.7744 47.152 19.362 45.6151 20.5275C43.7122 21.977 43.0744 22.7213 42.5621 24.1218C42.2798 24.8759 42.2485 25.914 42.4262 28.098C42.5098 29.097 42.5517 29.2733 42.7608 29.4496C42.8862 29.5573 42.9908 29.763 42.9908 29.9001C42.9908 30.2625 43.5763 30.9186 43.8795 30.9186C44.12 30.9186 44.1304 30.8991 44.0677 30.2527C44.0259 29.7336 44.0572 29.4692 44.235 28.9795C44.5695 28.0589 44.8832 27.6573 46.5979 25.9238C47.4657 25.0522 48.3857 24.0434 48.6471 23.6615C49.3058 22.7311 49.6927 21.6146 49.7554 20.4394C49.8286 19.1564 49.6717 18.3043 49.0026 16.4631C48.6889 15.6013 48.4276 14.7982 48.4276 14.6807C48.4276 14.524 48.323 14.426 48.0512 14.3183C47.612 14.1518 47.5179 14.142 47.1938 14.2889ZM48.4276 19.9791C48.4276 21.3502 47.633 22.4177 45.3955 24.112C44.9041 24.4744 44.4232 24.8465 44.3186 24.9347C44.1409 25.0816 44.1304 25.0718 44.1932 24.7976C44.235 24.6311 44.4023 24.2197 44.58 23.8672C44.8414 23.3481 45.1655 22.9857 46.3888 21.8497C47.4761 20.8311 47.9257 20.3414 48.0721 20.0084C48.1766 19.7636 48.3021 19.5579 48.3544 19.5579C48.3962 19.5579 48.4276 19.744 48.4276 19.9791Z" fill="#A98E68"/>
<path d="M39.1125 32.7586C38.6002 32.8075 35.7773 32.8663 32.8393 32.8761C28.3331 32.8859 27.3085 32.9153 26.2107 33.072C24.9665 33.2385 24.9037 33.2385 24.5692 33.072L24.2241 32.8957L23.7746 33.1993C22.384 34.1297 22.0808 35.3539 22.3213 39.0559C22.5095 41.9353 22.7499 42.9636 23.4505 43.9136C23.6909 44.2466 23.9105 44.7363 24.0673 45.3141C25.0292 48.6734 26.4511 51.3666 28.3749 53.4821C28.7931 53.9522 28.8036 53.9816 28.6049 54.0403C28.4795 54.0795 28.1135 54.0795 27.7894 54.0403C27.0053 53.962 25.8656 54.1383 25.186 54.4419C23.8373 55.0491 23.1368 56.5573 23.6805 57.664C24.1719 58.6728 25.6147 59.3779 27.9776 59.7697C30.581 60.2006 36.1118 60.3867 45.1243 60.3377C51.0002 60.2985 51.2721 60.2887 52.0457 60.0929C52.9345 59.8578 53.7813 59.4856 54.325 59.0841C54.5237 58.9372 54.806 58.7805 54.9523 58.7413C55.4437 58.5944 55.8724 58.1929 56.2488 57.5073C56.6879 56.714 56.7088 56.4692 56.4056 55.5192C56.092 54.5202 55.5901 54.0893 53.9591 53.4233C53.2795 53.1393 52.6103 52.8847 52.4744 52.8553C52.2444 52.7965 52.2653 52.7671 52.8508 52.1306C53.1854 51.7584 53.614 51.2687 53.8022 51.0239L54.1368 50.5929L54.67 50.779C55.4542 51.063 57.0538 51.1218 58.2248 50.9161C62.4488 50.162 66.1291 47.1847 67.4569 43.4141C67.7183 42.6698 67.7496 42.4348 67.7496 41.2595C67.7496 40.2508 67.7078 39.8003 67.5614 39.3595C66.9446 37.4302 65.5854 36.1962 63.6407 35.775C62.7625 35.5792 61.006 35.6281 60.0441 35.8632C59.1135 36.0884 58.183 36.5194 57.5766 37.009L57.1584 37.342L57.0852 36.8915C57.0434 36.5977 57.0538 36.3627 57.1375 36.2451C57.2839 36.0297 57.2839 35.7457 57.1479 35.6183C57.0852 35.5596 57.0852 35.3147 57.1689 34.923C57.3048 34.2472 57.1793 33.9534 56.8029 34.0513C56.667 34.0807 56.5206 34.0024 56.3429 33.8163C56.207 33.6596 55.9456 33.4931 55.7574 33.4343C55.5692 33.3854 54.1995 33.3168 52.7044 33.2874C50.582 33.2483 49.4006 33.1797 47.3199 32.9447C45.0302 32.69 44.3297 32.641 42.3537 32.6606C41.0886 32.6606 39.6353 32.7096 39.1125 32.7586ZM55.3392 34.9622C55.5901 35.0601 55.7888 35.1678 55.7888 35.207C55.7888 35.256 55.5901 35.2854 55.3392 35.2854C54.8478 35.2854 53.2272 35.4616 52.9345 35.54C52.7881 35.589 52.7567 35.6771 52.7776 36.0003L52.809 36.4116L54.1054 36.4312C54.8269 36.4508 55.4228 36.4802 55.4437 36.4998C55.4646 36.5096 55.4437 36.8328 55.4019 37.2049L55.3183 37.8807L54.4296 37.959C53.9382 37.9982 52.6731 38.057 51.6066 38.1059L49.6724 38.1745V38.5173V38.8601L51.5021 38.8894C53.1749 38.909 54.44 38.7915 55.1301 38.5467C55.2242 38.5075 55.266 38.6054 55.266 38.8797V39.2714L54.4086 39.3889C52.8299 39.6142 52.3908 39.7317 52.3594 39.957C52.328 40.143 52.3908 40.1724 52.9135 40.2312C53.2377 40.2704 53.8754 40.2704 54.3355 40.241L55.1614 40.1724V40.6131V41.0637H54.7223C54.4714 41.0637 53.8545 41.1224 53.3318 41.2008C51.5753 41.4554 51.0316 41.4848 50.8852 41.3183C50.8016 41.2301 50.6761 41.1616 50.6029 41.1616C50.4775 41.1616 50.4252 41.2693 50.2997 41.8667C50.2056 42.3564 51.0734 42.5915 53.3631 42.6894L55.0255 42.758L54.8478 43.4827C54.7432 43.8842 54.6491 44.2172 54.6282 44.2368C54.6073 44.2466 54.3459 44.3054 54.0532 44.3739C53.635 44.4621 53.3213 44.4523 52.5476 44.3348C52.0144 44.2564 51.293 44.1976 50.9375 44.2172C50.2997 44.2466 50.2997 44.2466 50.2683 44.56C50.2474 44.7951 50.2893 44.893 50.4565 44.9811C50.582 45.0399 50.7702 45.177 50.8748 45.275C51.2511 45.6275 53.0285 45.6569 53.8754 45.3239C54.0845 45.2358 54.2623 45.1868 54.2832 45.2064C54.3564 45.2652 53.6663 46.7048 53.5199 46.8224C53.4049 46.8909 52.9867 46.9399 52.3908 46.9399C50.5088 46.9399 49.5678 47.2729 50.0906 47.7626C50.2265 47.8899 50.2056 47.9095 49.9338 47.9682C49.756 48.0074 49.6201 48.0662 49.6201 48.1053C49.6201 48.2033 51.3557 48.4481 52.098 48.4481L52.6312 48.4579L52.464 48.7321C52.3594 48.8888 52.0457 49.31 51.753 49.6625L51.2198 50.3187L49.9756 50.3285C48.6582 50.3481 47.3199 50.4852 46.5776 50.6909C45.9817 50.8476 45.9398 51.1414 46.4835 51.2785C46.6822 51.3275 46.9645 51.445 47.1108 51.5331C47.5291 51.8074 47.7382 51.8661 48.6269 51.9249L49.4528 51.9837L48.836 52.444C48.4909 52.7084 47.9054 53.061 47.5291 53.247L46.8495 53.5702L46.1176 53.3939C44.6329 53.0218 42.8973 53.0316 42.7719 53.4135C42.6673 53.7073 42.8137 53.9816 43.1065 54.0599C43.2633 54.0893 43.5351 54.2166 43.7233 54.3341L44.0579 54.5496L43.2633 54.7553C42.6778 54.9022 41.7473 55.0099 39.8235 55.1274L37.1887 55.2939L36.5823 55.0687C32.1806 53.4331 28.8245 50.3873 26.6916 46.0976C25.1442 42.9832 24.4123 39.2126 24.7051 35.7848L24.7678 34.9622L25.4056 35.0307C27.6535 35.2658 29.5668 35.2854 38.5375 35.1776C45.8457 35.0993 48.3968 35.0993 49.7456 35.1874C51.5648 35.3147 53.0808 35.2266 54.1891 34.9426C54.8582 34.7663 54.8373 34.7663 55.3392 34.9622ZM62.8461 37.44C64.7594 37.9003 65.6377 38.8601 65.6377 40.5152C65.6481 42.3564 64.5399 44.56 62.8565 46.0389C61.6646 47.077 59.8977 48.0857 58.6117 48.4579C57.8171 48.6832 55.4124 48.7909 55.496 48.595C55.5274 48.5167 55.6633 48.2131 55.7888 47.9193L56.0292 47.3806L56.8447 47.4198C59.835 47.5471 62.7938 45.8038 63.7557 43.3652C63.9334 42.9147 63.9857 42.5523 63.9857 41.8471C63.9962 41.0441 63.9544 40.8384 63.7243 40.3683C63.212 39.3595 61.9888 38.8111 60.2532 38.8111C59.1449 38.8209 58.5594 38.9188 57.8694 39.2518L57.378 39.4771L57.3257 39.0168C57.2734 38.625 57.3048 38.5271 57.5452 38.292C57.7021 38.1353 57.9844 37.9199 58.183 37.8121C59.1554 37.2441 61.3196 37.0776 62.8461 37.44ZM60.9641 40.3879C61.4869 40.525 62.0097 41.0441 62.1038 41.5044C62.1979 41.9549 61.9574 42.7384 61.5496 43.3162C61.1837 43.8353 60.4727 44.3641 59.5945 44.7755C58.9567 45.0693 56.7716 45.7353 56.6879 45.6569C56.667 45.6373 56.7297 45.2456 56.8447 44.7853C56.9493 44.325 57.1375 43.2868 57.263 42.4837C57.4302 41.3673 57.5348 40.9755 57.6812 40.8384C57.7962 40.7405 57.8798 40.6229 57.8798 40.5838C57.8798 40.3193 60.1591 40.1822 60.9641 40.3879ZM50.3729 54.9903C50.3624 55.0785 50.4252 55.196 50.5297 55.245C50.7597 55.3625 52.3385 55.5584 53.269 55.5877C53.8022 55.6073 53.9591 55.6465 54.0741 55.8032C54.21 55.9991 54.21 56.0089 53.3527 55.9305C52.5581 55.8718 50.8016 55.9697 50.4252 56.1068C50.0279 56.2439 50.1115 56.7826 50.5402 56.9393C50.697 56.998 51.2616 57.0666 51.7948 57.096C52.3176 57.1254 52.7567 57.1841 52.7567 57.2135C52.7567 57.2429 52.0144 57.429 51.1048 57.615L49.4633 57.9578L43.7129 57.9676C40.5554 57.9774 36.6973 58.0362 35.1395 58.1047C31.9088 58.2418 29.7968 58.1831 28.0926 57.8991C26.6184 57.6542 25.9284 57.3702 25.9702 57.0274C26.0225 56.5769 26.5766 56.1656 27.3817 55.9991C28.6467 55.7249 29.5877 55.7151 30.6228 55.9403C31.1247 56.0578 31.7102 56.146 31.9297 56.146C32.1388 56.146 32.6511 56.2341 33.0484 56.3517C33.4876 56.4692 34.3344 56.5867 35.1918 56.6357C36.2059 56.6944 36.9692 56.812 37.9102 57.047C39.1125 57.331 39.3425 57.3604 40.7854 57.3604C41.7786 57.3506 42.7196 57.2918 43.3469 57.1841C45.1766 56.8805 47.6127 55.9893 49.1705 55.0687C49.7456 54.7259 50.4252 54.6769 50.3729 54.9903Z" fill="#A98E68"/>
<path d="M26.4725 37.4952C26.1275 37.6617 26.0125 37.9653 26.2321 38.171C26.2948 38.2297 26.2321 38.455 26.0439 38.7978C25.772 39.3168 25.7616 39.3952 25.772 40.8545C25.772 42.157 25.8139 42.539 26.0648 43.5477C26.4412 45.0658 26.7548 45.8591 27.4763 47.1714C27.9572 48.0528 28.2186 48.3956 28.9086 49.0518C29.4628 49.5807 29.9228 49.9332 30.2678 50.0704C30.5501 50.1879 30.937 50.4131 31.1252 50.56C31.3134 50.7167 31.5852 50.8441 31.7316 50.8441C32.0452 50.8441 32.5053 50.4425 32.5053 50.1585C32.5053 50.041 32.223 49.4533 31.8884 48.8559C30.5292 46.4467 29.9123 44.2921 29.6823 41.1972C29.515 38.8859 29.4209 38.4648 28.9609 38.0143C28.6786 37.7303 28.459 37.6127 28.1349 37.5638C27.8945 37.5246 27.6958 37.4658 27.6958 37.4169C27.6958 37.27 26.828 37.3287 26.4725 37.4952ZM28.1558 38.9545C28.3963 39.3854 28.4172 39.7967 28.2813 42.0787C28.2186 43.2441 28.2395 43.7142 28.365 44.3802C28.4486 44.8307 28.5113 45.2225 28.4904 45.242C28.4277 45.3008 27.8004 43.8122 27.6331 43.1854C27.4867 42.6859 27.4658 42.2745 27.5285 40.9524C27.6226 38.4256 27.7167 38.1514 28.1558 38.9545Z" fill="#A98E68"/>
<path d="M32.9953 51.4574C32.8908 51.477 32.8071 51.5554 32.8071 51.6337C32.8071 51.7219 33.0581 51.8002 33.539 51.8786C34.3022 51.9961 34.9296 52.3095 34.9818 52.5935C35.0446 52.8677 34.5323 52.7992 34.135 52.4662C33.7377 52.143 33.5285 52.1038 33.3299 52.3193C33.2044 52.4564 33.2358 52.6425 33.4554 53.1713C33.6749 53.7198 34.6995 54.0528 35.3582 53.7981C35.7869 53.6316 35.9437 53.3868 35.9437 52.8873C35.9437 51.9471 35.17 51.3791 33.9049 51.3987C33.5076 51.4085 33.0894 51.4281 32.9953 51.4574Z" fill="#A98E68"/>
</g>
<defs>
<clipPath id="clip0_177_5668">
<rect width="90" height="80" fill="white"/>
</clipPath>
</defs>
</svg>
